<?xml version="1.0" encoding="utf-8" standalone="no"?>
<!DOCTYPE svg PUBLIC "-//W3C//DTD SVG 1.1//EN"
  "http://www.w3.org/Graphics/SVG/1.1/DTD/svg11.dtd">
<svg xmlns:xlink="http://www.w3.org/1999/xlink" width="776.070594pt" height="643.103687pt" viewBox="0 0 776.070594 643.103687" xmlns="http://www.w3.org/2000/svg" version="1.1">
 <metadata>
  <rdf:RDF xmlns:dc="http://purl.org/dc/elements/1.1/" xmlns:cc="http://creativecommons.org/ns#" xmlns:rdf="http://www.w3.org/1999/02/22-rdf-syntax-ns#">
   <cc:Work>
    <dc:type rdf:resource="http://purl.org/dc/dcmitype/StillImage"/>
    <dc:date>2025-11-14T16:36:17.322959</dc:date>
    <dc:format>image/svg+xml</dc:format>
    <dc:creator>
     <cc:Agent>
      <dc:title>Matplotlib v3.9.2, https://matplotlib.org/</dc:title>
     </cc:Agent>
    </dc:creator>
   </cc:Work>
  </rdf:RDF>
 </metadata>
 <defs>
  <style type="text/css">*{stroke-linejoin: round; stroke-linecap: butt}</style>
 </defs>
 <g id="figure_1">
  <g id="patch_1">
   <path d="M 0 643.103687 
L 776.070594 643.103687 
L 776.070594 0 
L 0 0 
z
" style="fill: #ffffff"/>
  </g>
  <g id="axes_1">
   <g id="patch_2">
    <path d="M 549.838594 326.024 
C 549.838594 293.262587 543.38531 260.819737 530.84806 230.552137 
C 518.310809 200.284538 499.933411 172.780818 476.767594 149.615 
C 453.601776 126.449183 426.098056 108.071784 395.830456 95.534534 
C 365.562857 82.997284 333.120007 76.544 300.358594 76.544 
C 267.59718 76.544 235.15433 82.997284 204.886731 95.534534 
C 174.619132 108.071784 147.115412 126.449183 123.949594 149.615 
C 100.783776 172.780818 82.406378 200.284538 69.869128 230.552137 
C 57.331878 260.819737 50.878594 293.262587 50.878594 326.024 
C 50.878594 358.785413 57.331878 391.228263 69.869128 421.495863 
C 82.406378 451.763462 100.783776 479.267182 123.949594 502.433 
C 147.115412 525.598817 174.619132 543.976216 204.886731 556.513466 
C 235.15433 569.050716 267.59718 575.504 300.358594 575.504 
C 333.120007 575.504 365.562857 569.050716 395.830456 556.513466 
C 426.098056 543.976216 453.601776 525.598817 476.767594 502.433 
C 499.933411 479.267182 518.310809 451.763462 530.84806 421.495863 
C 543.38531 391.228263 549.838594 358.785413 549.838594 326.024 
M 300.358594 326.024 
C 300.358594 326.024 300.358594 326.024 300.358594 326.024 
C 300.358594 326.024 300.358594 326.024 300.358594 326.024 
C 300.358594 326.024 300.358594 326.024 300.358594 326.024 
C 300.358594 326.024 300.358594 326.024 300.358594 326.024 
C 300.358594 326.024 300.358594 326.024 300.358594 326.024 
C 300.358594 326.024 300.358594 326.024 300.358594 326.024 
C 300.358594 326.024 300.358594 326.024 300.358594 326.024 
C 300.358594 326.024 300.358594 326.024 300.358594 326.024 
C 300.358594 326.024 300.358594 326.024 300.358594 326.024 
C 300.358594 326.024 300.358594 326.024 300.358594 326.024 
C 300.358594 326.024 300.358594 326.024 300.358594 326.024 
C 300.358594 326.024 300.358594 326.024 300.358594 326.024 
C 300.358594 326.024 300.358594 326.024 300.358594 326.024 
C 300.358594 326.024 300.358594 326.024 300.358594 326.024 
C 300.358594 326.024 300.358594 326.024 300.358594 326.024 
C 300.358594 326.024 300.358594 326.024 300.358594 326.024 
z
" style="fill: #ffffff"/>
   </g>
   <g id="patch_3">
    <path d="M 495.327305 326.024 
L 300.358594 76.544 
L 50.878594 326.024 
L 300.358594 575.504 
z
" clip-path="url(#p54293cfe7c)" style="fill: #1b9e77; opacity: 0.15; stroke: #1b9e77; stroke-linejoin: miter"/>
   </g>
   <g id="patch_4">
    <path d="M 549.838594 326.024 
L 300.358594 185.429755 
L 181.63016 326.024 
L 300.358594 453.926423 
z
" clip-path="url(#p54293cfe7c)" style="fill: #d95f02; opacity: 0.15; stroke: #d95f02; stroke-linejoin: miter"/>
   </g>
   <g id="patch_5">
    <path d="M 538.209519 326.024 
L 300.358594 326.024 
L 300.358594 326.024 
L 300.358594 345.701296 
z
" clip-path="url(#p54293cfe7c)" style="fill: #7570b3; opacity: 0.15; stroke: #7570b3; stroke-linejoin: miter"/>
   </g>
   <g id="patch_6">
    <path d="M 300.358594 326.024 
L 300.358594 280.555223 
L 244.00016 326.024 
L 300.358594 326.024 
z
" clip-path="url(#p54293cfe7c)" style="fill: #e7298a; opacity: 0.15; stroke: #e7298a; stroke-linejoin: miter"/>
   </g>
   <g id="matplotlib.axis_1">
    <g id="xtick_1">
     <g id="line2d_1">
      <path d="M 300.358594 326.024 
L 549.838594 326.024 
" clip-path="url(#p54293cfe7c)" style="fill: none; stroke-dasharray: 2.22,0.96; stroke-dashoffset: 0; stroke: #b0b0b0; stroke-width: 0.6"/>
     </g>
     <g id="text_1">
      <!-- CLIPScore -->
      <g transform="translate(536.592109 329.059312) scale(0.11 -0.11)">
       <defs>
        <path id="DejaVuSans-43" d="M 4122 4306 
L 4122 3641 
Q 3803 3938 3442 4084 
Q 3081 4231 2675 4231 
Q 1875 4231 1450 3742 
Q 1025 3253 1025 2328 
Q 1025 1406 1450 917 
Q 1875 428 2675 428 
Q 3081 428 3442 575 
Q 3803 722 4122 1019 
L 4122 359 
Q 3791 134 3420 21 
Q 3050 -91 2638 -91 
Q 1578 -91 968 557 
Q 359 1206 359 2328 
Q 359 3453 968 4101 
Q 1578 4750 2638 4750 
Q 3056 4750 3426 4639 
Q 3797 4528 4122 4306 
z
" transform="scale(0.015625)"/>
        <path id="DejaVuSans-4c" d="M 628 4666 
L 1259 4666 
L 1259 531 
L 3531 531 
L 3531 0 
L 628 0 
L 628 4666 
z
" transform="scale(0.015625)"/>
        <path id="DejaVuSans-49" d="M 628 4666 
L 1259 4666 
L 1259 0 
L 628 0 
L 628 4666 
z
" transform="scale(0.015625)"/>
        <path id="DejaVuSans-50" d="M 1259 4147 
L 1259 2394 
L 2053 2394 
Q 2494 2394 2734 2622 
Q 2975 2850 2975 3272 
Q 2975 3691 2734 3919 
Q 2494 4147 2053 4147 
L 1259 4147 
z
M 628 4666 
L 2053 4666 
Q 2838 4666 3239 4311 
Q 3641 3956 3641 3272 
Q 3641 2581 3239 2228 
Q 2838 1875 2053 1875 
L 1259 1875 
L 1259 0 
L 628 0 
L 628 4666 
z
" transform="scale(0.015625)"/>
        <path id="DejaVuSans-53" d="M 3425 4513 
L 3425 3897 
Q 3066 4069 2747 4153 
Q 2428 4238 2131 4238 
Q 1616 4238 1336 4038 
Q 1056 3838 1056 3469 
Q 1056 3159 1242 3001 
Q 1428 2844 1947 2747 
L 2328 2669 
Q 3034 2534 3370 2195 
Q 3706 1856 3706 1288 
Q 3706 609 3251 259 
Q 2797 -91 1919 -91 
Q 1588 -91 1214 -16 
Q 841 59 441 206 
L 441 856 
Q 825 641 1194 531 
Q 1563 422 1919 422 
Q 2459 422 2753 634 
Q 3047 847 3047 1241 
Q 3047 1584 2836 1778 
Q 2625 1972 2144 2069 
L 1759 2144 
Q 1053 2284 737 2584 
Q 422 2884 422 3419 
Q 422 4038 858 4394 
Q 1294 4750 2059 4750 
Q 2388 4750 2728 4690 
Q 3069 4631 3425 4513 
z
" transform="scale(0.015625)"/>
        <path id="DejaVuSans-63" d="M 3122 3366 
L 3122 2828 
Q 2878 2963 2633 3030 
Q 2388 3097 2138 3097 
Q 1578 3097 1268 2742 
Q 959 2388 959 1747 
Q 959 1106 1268 751 
Q 1578 397 2138 397 
Q 2388 397 2633 464 
Q 2878 531 3122 666 
L 3122 134 
Q 2881 22 2623 -34 
Q 2366 -91 2075 -91 
Q 1284 -91 818 406 
Q 353 903 353 1747 
Q 353 2603 823 3093 
Q 1294 3584 2113 3584 
Q 2378 3584 2631 3529 
Q 2884 3475 3122 3366 
z
" transform="scale(0.015625)"/>
        <path id="DejaVuSans-6f" d="M 1959 3097 
Q 1497 3097 1228 2736 
Q 959 2375 959 1747 
Q 959 1119 1226 758 
Q 1494 397 1959 397 
Q 2419 397 2687 759 
Q 2956 1122 2956 1747 
Q 2956 2369 2687 2733 
Q 2419 3097 1959 3097 
z
M 1959 3584 
Q 2709 3584 3137 3096 
Q 3566 2609 3566 1747 
Q 3566 888 3137 398 
Q 2709 -91 1959 -91 
Q 1206 -91 779 398 
Q 353 888 353 1747 
Q 353 2609 779 3096 
Q 1206 3584 1959 3584 
z
" transform="scale(0.015625)"/>
        <path id="DejaVuSans-72" d="M 2631 2963 
Q 2534 3019 2420 3045 
Q 2306 3072 2169 3072 
Q 1681 3072 1420 2755 
Q 1159 2438 1159 1844 
L 1159 0 
L 581 0 
L 581 3500 
L 1159 3500 
L 1159 2956 
Q 1341 3275 1631 3429 
Q 1922 3584 2338 3584 
Q 2397 3584 2469 3576 
Q 2541 3569 2628 3553 
L 2631 2963 
z
" transform="scale(0.015625)"/>
        <path id="DejaVuSans-65" d="M 3597 1894 
L 3597 1613 
L 953 1613 
Q 991 1019 1311 708 
Q 1631 397 2203 397 
Q 2534 397 2845 478 
Q 3156 559 3463 722 
L 3463 178 
Q 3153 47 2828 -22 
Q 2503 -91 2169 -91 
Q 1331 -91 842 396 
Q 353 884 353 1716 
Q 353 2575 817 3079 
Q 1281 3584 2069 3584 
Q 2775 3584 3186 3129 
Q 3597 2675 3597 1894 
z
M 3022 2063 
Q 3016 2534 2758 2815 
Q 2500 3097 2075 3097 
Q 1594 3097 1305 2825 
Q 1016 2553 972 2059 
L 3022 2063 
z
" transform="scale(0.015625)"/>
       </defs>
       <use xlink:href="#DejaVuSans-43"/>
       <use xlink:href="#DejaVuSans-4c" x="69.824219"/>
       <use xlink:href="#DejaVuSans-49" x="125.537109"/>
       <use xlink:href="#DejaVuSans-50" x="155.029297"/>
       <use xlink:href="#DejaVuSans-53" x="215.332031"/>
       <use xlink:href="#DejaVuSans-63" x="278.808594"/>
       <use xlink:href="#DejaVuSans-6f" x="333.789062"/>
       <use xlink:href="#DejaVuSans-72" x="394.970703"/>
       <use xlink:href="#DejaVuSans-65" x="433.833984"/>
      </g>
     </g>
    </g>
    <g id="xtick_2">
     <g id="line2d_2">
      <path d="M 300.358594 326.024 
L 300.358594 76.544 
" clip-path="url(#p54293cfe7c)" style="fill: none; stroke-dasharray: 2.22,0.96; stroke-dashoffset: 0; stroke: #b0b0b0; stroke-width: 0.6"/>
     </g>
     <g id="text_2">
      <!-- BLEU-1 -->
      <g transform="translate(280.53625 65.579312) scale(0.11 -0.11)">
       <defs>
        <path id="DejaVuSans-42" d="M 1259 2228 
L 1259 519 
L 2272 519 
Q 2781 519 3026 730 
Q 3272 941 3272 1375 
Q 3272 1813 3026 2020 
Q 2781 2228 2272 2228 
L 1259 2228 
z
M 1259 4147 
L 1259 2741 
L 2194 2741 
Q 2656 2741 2882 2914 
Q 3109 3088 3109 3444 
Q 3109 3797 2882 3972 
Q 2656 4147 2194 4147 
L 1259 4147 
z
M 628 4666 
L 2241 4666 
Q 2963 4666 3353 4366 
Q 3744 4066 3744 3513 
Q 3744 3084 3544 2831 
Q 3344 2578 2956 2516 
Q 3422 2416 3680 2098 
Q 3938 1781 3938 1306 
Q 3938 681 3513 340 
Q 3088 0 2303 0 
L 628 0 
L 628 4666 
z
" transform="scale(0.015625)"/>
        <path id="DejaVuSans-45" d="M 628 4666 
L 3578 4666 
L 3578 4134 
L 1259 4134 
L 1259 2753 
L 3481 2753 
L 3481 2222 
L 1259 2222 
L 1259 531 
L 3634 531 
L 3634 0 
L 628 0 
L 628 4666 
z
" transform="scale(0.015625)"/>
        <path id="DejaVuSans-55" d="M 556 4666 
L 1191 4666 
L 1191 1831 
Q 1191 1081 1462 751 
Q 1734 422 2344 422 
Q 2950 422 3222 751 
Q 3494 1081 3494 1831 
L 3494 4666 
L 4128 4666 
L 4128 1753 
Q 4128 841 3676 375 
Q 3225 -91 2344 -91 
Q 1459 -91 1007 375 
Q 556 841 556 1753 
L 556 4666 
z
" transform="scale(0.015625)"/>
        <path id="DejaVuSans-2d" d="M 313 2009 
L 1997 2009 
L 1997 1497 
L 313 1497 
L 313 2009 
z
" transform="scale(0.015625)"/>
        <path id="DejaVuSans-31" d="M 794 531 
L 1825 531 
L 1825 4091 
L 703 3866 
L 703 4441 
L 1819 4666 
L 2450 4666 
L 2450 531 
L 3481 531 
L 3481 0 
L 794 0 
L 794 531 
z
" transform="scale(0.015625)"/>
       </defs>
       <use xlink:href="#DejaVuSans-42"/>
       <use xlink:href="#DejaVuSans-4c" x="68.603516"/>
       <use xlink:href="#DejaVuSans-45" x="124.316406"/>
       <use xlink:href="#DejaVuSans-55" x="187.5"/>
       <use xlink:href="#DejaVuSans-2d" x="260.693359"/>
       <use xlink:href="#DejaVuSans-31" x="296.777344"/>
      </g>
     </g>
    </g>
    <g id="xtick_3">
     <g id="line2d_3">
      <path d="M 300.358594 326.024 
L 50.878594 326.024 
" clip-path="url(#p54293cfe7c)" style="fill: none; stroke-dasharray: 2.22,0.96; stroke-dashoffset: 0; stroke: #b0b0b0; stroke-width: 0.6"/>
     </g>
     <g id="text_3">
      <!-- METEOR -->
      <g transform="translate(13.672031 329.059312) scale(0.11 -0.11)">
       <defs>
        <path id="DejaVuSans-4d" d="M 628 4666 
L 1569 4666 
L 2759 1491 
L 3956 4666 
L 4897 4666 
L 4897 0 
L 4281 0 
L 4281 4097 
L 3078 897 
L 2444 897 
L 1241 4097 
L 1241 0 
L 628 0 
L 628 4666 
z
" transform="scale(0.015625)"/>
        <path id="DejaVuSans-54" d="M -19 4666 
L 3928 4666 
L 3928 4134 
L 2272 4134 
L 2272 0 
L 1638 0 
L 1638 4134 
L -19 4134 
L -19 4666 
z
" transform="scale(0.015625)"/>
        <path id="DejaVuSans-4f" d="M 2522 4238 
Q 1834 4238 1429 3725 
Q 1025 3213 1025 2328 
Q 1025 1447 1429 934 
Q 1834 422 2522 422 
Q 3209 422 3611 934 
Q 4013 1447 4013 2328 
Q 4013 3213 3611 3725 
Q 3209 4238 2522 4238 
z
M 2522 4750 
Q 3503 4750 4090 4092 
Q 4678 3434 4678 2328 
Q 4678 1225 4090 567 
Q 3503 -91 2522 -91 
Q 1538 -91 948 565 
Q 359 1222 359 2328 
Q 359 3434 948 4092 
Q 1538 4750 2522 4750 
z
" transform="scale(0.015625)"/>
        <path id="DejaVuSans-52" d="M 2841 2188 
Q 3044 2119 3236 1894 
Q 3428 1669 3622 1275 
L 4263 0 
L 3584 0 
L 2988 1197 
Q 2756 1666 2539 1819 
Q 2322 1972 1947 1972 
L 1259 1972 
L 1259 0 
L 628 0 
L 628 4666 
L 2053 4666 
Q 2853 4666 3247 4331 
Q 3641 3997 3641 3322 
Q 3641 2881 3436 2590 
Q 3231 2300 2841 2188 
z
M 1259 4147 
L 1259 2491 
L 2053 2491 
Q 2509 2491 2742 2702 
Q 2975 2913 2975 3322 
Q 2975 3731 2742 3939 
Q 2509 4147 2053 4147 
L 1259 4147 
z
" transform="scale(0.015625)"/>
       </defs>
       <use xlink:href="#DejaVuSans-4d"/>
       <use xlink:href="#DejaVuSans-45" x="86.279297"/>
       <use xlink:href="#DejaVuSans-54" x="149.462891"/>
       <use xlink:href="#DejaVuSans-45" x="210.546875"/>
       <use xlink:href="#DejaVuSans-4f" x="273.730469"/>
       <use xlink:href="#DejaVuSans-52" x="352.441406"/>
      </g>
     </g>
    </g>
    <g id="xtick_4">
     <g id="line2d_4">
      <path d="M 300.358594 326.024 
L 300.358594 575.504 
" clip-path="url(#p54293cfe7c)" style="fill: none; stroke-dasharray: 2.22,0.96; stroke-dashoffset: 0; stroke: #b0b0b0; stroke-width: 0.6"/>
     </g>
     <g id="text_4">
      <!-- ROUGE-L -->
      <g transform="translate(275.396328 592.539312) scale(0.11 -0.11)">
       <defs>
        <path id="DejaVuSans-47" d="M 3809 666 
L 3809 1919 
L 2778 1919 
L 2778 2438 
L 4434 2438 
L 4434 434 
Q 4069 175 3628 42 
Q 3188 -91 2688 -91 
Q 1594 -91 976 548 
Q 359 1188 359 2328 
Q 359 3472 976 4111 
Q 1594 4750 2688 4750 
Q 3144 4750 3555 4637 
Q 3966 4525 4313 4306 
L 4313 3634 
Q 3963 3931 3569 4081 
Q 3175 4231 2741 4231 
Q 1884 4231 1454 3753 
Q 1025 3275 1025 2328 
Q 1025 1384 1454 906 
Q 1884 428 2741 428 
Q 3075 428 3337 486 
Q 3600 544 3809 666 
z
" transform="scale(0.015625)"/>
       </defs>
       <use xlink:href="#DejaVuSans-52"/>
       <use xlink:href="#DejaVuSans-4f" x="69.482422"/>
       <use xlink:href="#DejaVuSans-55" x="148.193359"/>
       <use xlink:href="#DejaVuSans-47" x="221.386719"/>
       <use xlink:href="#DejaVuSans-45" x="298.876953"/>
       <use xlink:href="#DejaVuSans-2d" x="362.060547"/>
       <use xlink:href="#DejaVuSans-4c" x="398.144531"/>
      </g>
     </g>
    </g>
   </g>
   <g id="matplotlib.axis_2">
    <g id="ytick_1">
     <g id="line2d_5">
      <path d="M 362.728594 326.024 
C 362.728594 317.833647 361.115273 309.722934 357.98096 302.156034 
C 354.846648 294.589134 350.252298 287.713204 344.460844 281.92175 
C 338.669389 276.130296 331.793459 271.535946 324.226559 268.401634 
C 316.65966 265.267321 308.548947 263.654 300.358594 263.654 
C 292.16824 263.654 284.057528 265.267321 276.490628 268.401634 
C 268.923728 271.535946 262.047798 276.130296 256.256344 281.92175 
C 250.464889 287.713204 245.87054 294.589134 242.736227 302.156034 
C 239.601915 309.722934 237.988594 317.833647 237.988594 326.024 
C 237.988594 334.214353 239.601915 342.325066 242.736227 349.891966 
C 245.87054 357.458866 250.464889 364.334796 256.256344 370.12625 
C 262.047798 375.917704 268.923728 380.512054 276.490628 383.646366 
C 284.057528 386.780679 292.16824 388.394 300.358594 388.394 
C 308.548947 388.394 316.65966 386.780679 324.226559 383.646366 
C 331.793459 380.512054 338.669389 375.917704 344.460844 370.12625 
C 350.252298 364.334796 354.846648 357.458866 357.98096 349.891966 
C 361.115273 342.325066 362.728594 334.214353 362.728594 326.024 
" clip-path="url(#p54293cfe7c)" style="fill: none; stroke-dasharray: 2.22,0.96; stroke-dashoffset: 0; stroke: #b0b0b0; stroke-width: 0.6"/>
     </g>
     <g id="text_5">
      <!-- 0.25 -->
      <g transform="translate(357.98096 299.868378) scale(0.11 -0.11)">
       <defs>
        <path id="DejaVuSans-30" d="M 2034 4250 
Q 1547 4250 1301 3770 
Q 1056 3291 1056 2328 
Q 1056 1369 1301 889 
Q 1547 409 2034 409 
Q 2525 409 2770 889 
Q 3016 1369 3016 2328 
Q 3016 3291 2770 3770 
Q 2525 4250 2034 4250 
z
M 2034 4750 
Q 2819 4750 3233 4129 
Q 3647 3509 3647 2328 
Q 3647 1150 3233 529 
Q 2819 -91 2034 -91 
Q 1250 -91 836 529 
Q 422 1150 422 2328 
Q 422 3509 836 4129 
Q 1250 4750 2034 4750 
z
" transform="scale(0.015625)"/>
        <path id="DejaVuSans-2e" d="M 684 794 
L 1344 794 
L 1344 0 
L 684 0 
L 684 794 
z
" transform="scale(0.015625)"/>
        <path id="DejaVuSans-32" d="M 1228 531 
L 3431 531 
L 3431 0 
L 469 0 
L 469 531 
Q 828 903 1448 1529 
Q 2069 2156 2228 2338 
Q 2531 2678 2651 2914 
Q 2772 3150 2772 3378 
Q 2772 3750 2511 3984 
Q 2250 4219 1831 4219 
Q 1534 4219 1204 4116 
Q 875 4013 500 3803 
L 500 4441 
Q 881 4594 1212 4672 
Q 1544 4750 1819 4750 
Q 2544 4750 2975 4387 
Q 3406 4025 3406 3419 
Q 3406 3131 3298 2873 
Q 3191 2616 2906 2266 
Q 2828 2175 2409 1742 
Q 1991 1309 1228 531 
z
" transform="scale(0.015625)"/>
        <path id="DejaVuSans-35" d="M 691 4666 
L 3169 4666 
L 3169 4134 
L 1269 4134 
L 1269 2991 
Q 1406 3038 1543 3061 
Q 1681 3084 1819 3084 
Q 2600 3084 3056 2656 
Q 3513 2228 3513 1497 
Q 3513 744 3044 326 
Q 2575 -91 1722 -91 
Q 1428 -91 1123 -41 
Q 819 9 494 109 
L 494 744 
Q 775 591 1075 516 
Q 1375 441 1709 441 
Q 2250 441 2565 725 
Q 2881 1009 2881 1497 
Q 2881 1984 2565 2268 
Q 2250 2553 1709 2553 
Q 1456 2553 1204 2497 
Q 953 2441 691 2322 
L 691 4666 
z
" transform="scale(0.015625)"/>
       </defs>
       <use xlink:href="#DejaVuSans-30"/>
       <use xlink:href="#DejaVuSans-2e" x="63.623047"/>
       <use xlink:href="#DejaVuSans-32" x="95.410156"/>
       <use xlink:href="#DejaVuSans-35" x="159.033203"/>
      </g>
     </g>
    </g>
    <g id="ytick_2">
     <g id="line2d_6">
      <path d="M 425.098594 326.024 
C 425.098594 309.643293 421.871952 293.421868 415.603327 278.288069 
C 409.334702 263.154269 400.146002 249.402409 388.563094 237.8195 
C 376.980185 226.236591 363.228325 217.047892 348.094525 210.779267 
C 332.960725 204.510642 316.7393 201.284 300.358594 201.284 
C 283.977887 201.284 267.756462 204.510642 252.622662 210.779267 
C 237.488863 217.047892 223.737003 226.236591 212.154094 237.8195 
C 200.571185 249.402409 191.382486 263.154269 185.113861 278.288069 
C 178.845236 293.421868 175.618594 309.643293 175.618594 326.024 
C 175.618594 342.404707 178.845236 358.626132 185.113861 373.759931 
C 191.382486 388.893731 200.571185 402.645591 212.154094 414.2285 
C 223.737003 425.811409 237.488863 435.000108 252.622662 441.268733 
C 267.756462 447.537358 283.977887 450.764 300.358594 450.764 
C 316.7393 450.764 332.960725 447.537358 348.094525 441.268733 
C 363.228325 435.000108 376.980185 425.811409 388.563094 414.2285 
C 400.146002 402.645591 409.334702 388.893731 415.603327 373.759931 
C 421.871952 358.626132 425.098594 342.404707 425.098594 326.024 
" clip-path="url(#p54293cfe7c)" style="fill: none; stroke-dasharray: 2.22,0.96; stroke-dashoffset: 0; stroke: #b0b0b0; stroke-width: 0.6"/>
     </g>
     <g id="text_6">
      <!-- 0.5 -->
      <g transform="translate(415.603327 276.000412) scale(0.11 -0.11)">
       <use xlink:href="#DejaVuSans-30"/>
       <use xlink:href="#DejaVuSans-2e" x="63.623047"/>
       <use xlink:href="#DejaVuSans-35" x="95.410156"/>
      </g>
     </g>
    </g>
    <g id="ytick_3">
     <g id="line2d_7">
      <path d="M 487.468594 326.024 
C 487.468594 301.45294 482.628631 277.120802 473.225693 254.420103 
C 463.822755 231.719403 450.039707 211.091613 432.665344 193.71725 
C 415.29098 176.342887 394.66319 162.559838 371.962491 153.156901 
C 349.261791 143.753963 324.929654 138.914 300.358594 138.914 
C 275.787534 138.914 251.455396 143.753963 228.754697 153.156901 
C 206.053997 162.559838 185.426207 176.342887 168.051844 193.71725 
C 150.677481 211.091613 136.894432 231.719403 127.491494 254.420103 
C 118.088557 277.120802 113.248594 301.45294 113.248594 326.024 
C 113.248594 350.59506 118.088557 374.927198 127.491494 397.627897 
C 136.894432 420.328597 150.677481 440.956387 168.051844 458.33075 
C 185.426207 475.705113 206.053997 489.488162 228.754697 498.891099 
C 251.455396 508.294037 275.787534 513.134 300.358594 513.134 
C 324.929654 513.134 349.261791 508.294037 371.962491 498.891099 
C 394.66319 489.488162 415.29098 475.705113 432.665344 458.33075 
C 450.039707 440.956387 463.822755 420.328597 473.225693 397.627897 
C 482.628631 374.927198 487.468594 350.59506 487.468594 326.024 
" clip-path="url(#p54293cfe7c)" style="fill: none; stroke-dasharray: 2.22,0.96; stroke-dashoffset: 0; stroke: #b0b0b0; stroke-width: 0.6"/>
     </g>
     <g id="text_7">
      <!-- 0.75 -->
      <g transform="translate(473.225693 252.132447) scale(0.11 -0.11)">
       <defs>
        <path id="DejaVuSans-37" d="M 525 4666 
L 3525 4666 
L 3525 4397 
L 1831 0 
L 1172 0 
L 2766 4134 
L 525 4134 
L 525 4666 
z
" transform="scale(0.015625)"/>
       </defs>
       <use xlink:href="#DejaVuSans-30"/>
       <use xlink:href="#DejaVuSans-2e" x="63.623047"/>
       <use xlink:href="#DejaVuSans-37" x="95.410156"/>
       <use xlink:href="#DejaVuSans-35" x="159.033203"/>
      </g>
     </g>
    </g>
    <g id="ytick_4">
     <g id="line2d_8">
      <path d="M 549.838594 326.024 
C 549.838594 293.262587 543.38531 260.819737 530.84806 230.552137 
C 518.310809 200.284538 499.933411 172.780818 476.767594 149.615 
C 453.601776 126.449183 426.098056 108.071784 395.830456 95.534534 
C 365.562857 82.997284 333.120007 76.544 300.358594 76.544 
C 267.59718 76.544 235.15433 82.997284 204.886731 95.534534 
C 174.619132 108.071784 147.115412 126.449183 123.949594 149.615 
C 100.783776 172.780818 82.406378 200.284538 69.869128 230.552137 
C 57.331878 260.819737 50.878594 293.262587 50.878594 326.024 
C 50.878594 358.785413 57.331878 391.228263 69.869128 421.495863 
C 82.406378 451.763462 100.783776 479.267182 123.949594 502.433 
C 147.115412 525.598817 174.619132 543.976216 204.886731 556.513466 
C 235.15433 569.050716 267.59718 575.504 300.358594 575.504 
C 333.120007 575.504 365.562857 569.050716 395.830456 556.513466 
C 426.098056 543.976216 453.601776 525.598817 476.767594 502.433 
C 499.933411 479.267182 518.310809 451.763462 530.84806 421.495863 
C 543.38531 391.228263 549.838594 358.785413 549.838594 326.024 
" clip-path="url(#p54293cfe7c)" style="fill: none; stroke-dasharray: 2.22,0.96; stroke-dashoffset: 0; stroke: #b0b0b0; stroke-width: 0.6"/>
     </g>
     <g id="text_8">
      <!-- 1.0 -->
      <g transform="translate(530.84806 228.264481) scale(0.11 -0.11)">
       <use xlink:href="#DejaVuSans-31"/>
       <use xlink:href="#DejaVuSans-2e" x="63.623047"/>
       <use xlink:href="#DejaVuSans-30" x="95.410156"/>
      </g>
     </g>
    </g>
   </g>
   <g id="line2d_9">
    <path d="M 495.327305 326.024 
L 300.358594 76.544 
L 50.878594 326.024 
L 300.358594 575.504 
L 495.327305 326.024 
" clip-path="url(#p54293cfe7c)" style="fill: none; stroke: #1b9e77; stroke-width: 2; stroke-linecap: square"/>
   </g>
   <g id="line2d_10">
    <path d="M 549.838594 326.024 
L 300.358594 185.429755 
L 181.63016 326.024 
L 300.358594 453.926423 
L 549.838594 326.024 
" clip-path="url(#p54293cfe7c)" style="fill: none; stroke: #d95f02; stroke-width: 2; stroke-linecap: square"/>
   </g>
   <g id="line2d_11">
    <path d="M 538.209519 326.024 
L 300.358594 326.024 
L 300.358594 326.024 
L 300.358594 345.701296 
L 538.209519 326.024 
" clip-path="url(#p54293cfe7c)" style="fill: none; stroke: #7570b3; stroke-width: 2; stroke-linecap: square"/>
   </g>
   <g id="line2d_12">
    <path d="M 300.358594 326.024 
L 300.358594 280.555223 
L 244.00016 326.024 
L 300.358594 326.024 
L 300.358594 326.024 
" clip-path="url(#p54293cfe7c)" style="fill: none; stroke: #e7298a; stroke-width: 2; stroke-linecap: square"/>
   </g>
   <g id="patch_7">
    <path d="M 549.838594 326.024 
C 549.838594 293.262587 543.38531 260.819737 530.84806 230.552137 
C 518.310809 200.284538 499.933411 172.780818 476.767594 149.615 
C 453.601776 126.449183 426.098056 108.071784 395.830456 95.534534 
C 365.562857 82.997284 333.120007 76.544 300.358594 76.544 
C 267.59718 76.544 235.15433 82.997284 204.886731 95.534534 
C 174.619132 108.071784 147.115412 126.449183 123.949594 149.615 
C 100.783776 172.780818 82.406378 200.284538 69.869128 230.552137 
C 57.331878 260.819737 50.878594 293.262587 50.878594 326.024 
C 50.878594 358.785413 57.331878 391.228263 69.869128 421.495863 
C 82.406378 451.763462 100.783776 479.267182 123.949594 502.433 
C 147.115412 525.598817 174.619132 543.976216 204.886731 556.513466 
C 235.15433 569.050716 267.59718 575.504 300.358594 575.504 
C 333.120007 575.504 365.562857 569.050716 395.830456 556.513466 
C 426.098056 543.976216 453.601776 525.598817 476.767594 502.433 
C 499.933411 479.267182 518.310809 451.763462 530.84806 421.495863 
C 543.38531 391.228263 549.838594 358.785413 549.838594 326.024 
" style="fill: none; stroke: #000000; stroke-width: 0.8; stroke-linejoin: miter; stroke-linecap: square"/>
   </g>
   <g id="text_9">
    <!-- Captioning Metrics on the 400-item Test Split -->
    <g transform="translate(142.53375 37.221031) scale(0.14 -0.14)">
     <defs>
      <path id="DejaVuSans-61" d="M 2194 1759 
Q 1497 1759 1228 1600 
Q 959 1441 959 1056 
Q 959 750 1161 570 
Q 1363 391 1709 391 
Q 2188 391 2477 730 
Q 2766 1069 2766 1631 
L 2766 1759 
L 2194 1759 
z
M 3341 1997 
L 3341 0 
L 2766 0 
L 2766 531 
Q 2569 213 2275 61 
Q 1981 -91 1556 -91 
Q 1019 -91 701 211 
Q 384 513 384 1019 
Q 384 1609 779 1909 
Q 1175 2209 1959 2209 
L 2766 2209 
L 2766 2266 
Q 2766 2663 2505 2880 
Q 2244 3097 1772 3097 
Q 1472 3097 1187 3025 
Q 903 2953 641 2809 
L 641 3341 
Q 956 3463 1253 3523 
Q 1550 3584 1831 3584 
Q 2591 3584 2966 3190 
Q 3341 2797 3341 1997 
z
" transform="scale(0.015625)"/>
      <path id="DejaVuSans-70" d="M 1159 525 
L 1159 -1331 
L 581 -1331 
L 581 3500 
L 1159 3500 
L 1159 2969 
Q 1341 3281 1617 3432 
Q 1894 3584 2278 3584 
Q 2916 3584 3314 3078 
Q 3713 2572 3713 1747 
Q 3713 922 3314 415 
Q 2916 -91 2278 -91 
Q 1894 -91 1617 61 
Q 1341 213 1159 525 
z
M 3116 1747 
Q 3116 2381 2855 2742 
Q 2594 3103 2138 3103 
Q 1681 3103 1420 2742 
Q 1159 2381 1159 1747 
Q 1159 1113 1420 752 
Q 1681 391 2138 391 
Q 2594 391 2855 752 
Q 3116 1113 3116 1747 
z
" transform="scale(0.015625)"/>
      <path id="DejaVuSans-74" d="M 1172 4494 
L 1172 3500 
L 2356 3500 
L 2356 3053 
L 1172 3053 
L 1172 1153 
Q 1172 725 1289 603 
Q 1406 481 1766 481 
L 2356 481 
L 2356 0 
L 1766 0 
Q 1100 0 847 248 
Q 594 497 594 1153 
L 594 3053 
L 172 3053 
L 172 3500 
L 594 3500 
L 594 4494 
L 1172 4494 
z
" transform="scale(0.015625)"/>
      <path id="DejaVuSans-69" d="M 603 3500 
L 1178 3500 
L 1178 0 
L 603 0 
L 603 3500 
z
M 603 4863 
L 1178 4863 
L 1178 4134 
L 603 4134 
L 603 4863 
z
" transform="scale(0.015625)"/>
      <path id="DejaVuSans-6e" d="M 3513 2113 
L 3513 0 
L 2938 0 
L 2938 2094 
Q 2938 2591 2744 2837 
Q 2550 3084 2163 3084 
Q 1697 3084 1428 2787 
Q 1159 2491 1159 1978 
L 1159 0 
L 581 0 
L 581 3500 
L 1159 3500 
L 1159 2956 
Q 1366 3272 1645 3428 
Q 1925 3584 2291 3584 
Q 2894 3584 3203 3211 
Q 3513 2838 3513 2113 
z
" transform="scale(0.015625)"/>
      <path id="DejaVuSans-67" d="M 2906 1791 
Q 2906 2416 2648 2759 
Q 2391 3103 1925 3103 
Q 1463 3103 1205 2759 
Q 947 2416 947 1791 
Q 947 1169 1205 825 
Q 1463 481 1925 481 
Q 2391 481 2648 825 
Q 2906 1169 2906 1791 
z
M 3481 434 
Q 3481 -459 3084 -895 
Q 2688 -1331 1869 -1331 
Q 1566 -1331 1297 -1286 
Q 1028 -1241 775 -1147 
L 775 -588 
Q 1028 -725 1275 -790 
Q 1522 -856 1778 -856 
Q 2344 -856 2625 -561 
Q 2906 -266 2906 331 
L 2906 616 
Q 2728 306 2450 153 
Q 2172 0 1784 0 
Q 1141 0 747 490 
Q 353 981 353 1791 
Q 353 2603 747 3093 
Q 1141 3584 1784 3584 
Q 2172 3584 2450 3431 
Q 2728 3278 2906 2969 
L 2906 3500 
L 3481 3500 
L 3481 434 
z
" transform="scale(0.015625)"/>
      <path id="DejaVuSans-20" transform="scale(0.015625)"/>
      <path id="DejaVuSans-73" d="M 2834 3397 
L 2834 2853 
Q 2591 2978 2328 3040 
Q 2066 3103 1784 3103 
Q 1356 3103 1142 2972 
Q 928 2841 928 2578 
Q 928 2378 1081 2264 
Q 1234 2150 1697 2047 
L 1894 2003 
Q 2506 1872 2764 1633 
Q 3022 1394 3022 966 
Q 3022 478 2636 193 
Q 2250 -91 1575 -91 
Q 1294 -91 989 -36 
Q 684 19 347 128 
L 347 722 
Q 666 556 975 473 
Q 1284 391 1588 391 
Q 1994 391 2212 530 
Q 2431 669 2431 922 
Q 2431 1156 2273 1281 
Q 2116 1406 1581 1522 
L 1381 1569 
Q 847 1681 609 1914 
Q 372 2147 372 2553 
Q 372 3047 722 3315 
Q 1072 3584 1716 3584 
Q 2034 3584 2315 3537 
Q 2597 3491 2834 3397 
z
" transform="scale(0.015625)"/>
      <path id="DejaVuSans-68" d="M 3513 2113 
L 3513 0 
L 2938 0 
L 2938 2094 
Q 2938 2591 2744 2837 
Q 2550 3084 2163 3084 
Q 1697 3084 1428 2787 
Q 1159 2491 1159 1978 
L 1159 0 
L 581 0 
L 581 4863 
L 1159 4863 
L 1159 2956 
Q 1366 3272 1645 3428 
Q 1925 3584 2291 3584 
Q 2894 3584 3203 3211 
Q 3513 2838 3513 2113 
z
" transform="scale(0.015625)"/>
      <path id="DejaVuSans-34" d="M 2419 4116 
L 825 1625 
L 2419 1625 
L 2419 4116 
z
M 2253 4666 
L 3047 4666 
L 3047 1625 
L 3713 1625 
L 3713 1100 
L 3047 1100 
L 3047 0 
L 2419 0 
L 2419 1100 
L 313 1100 
L 313 1709 
L 2253 4666 
z
" transform="scale(0.015625)"/>
      <path id="DejaVuSans-6d" d="M 3328 2828 
Q 3544 3216 3844 3400 
Q 4144 3584 4550 3584 
Q 5097 3584 5394 3201 
Q 5691 2819 5691 2113 
L 5691 0 
L 5113 0 
L 5113 2094 
Q 5113 2597 4934 2840 
Q 4756 3084 4391 3084 
Q 3944 3084 3684 2787 
Q 3425 2491 3425 1978 
L 3425 0 
L 2847 0 
L 2847 2094 
Q 2847 2600 2669 2842 
Q 2491 3084 2119 3084 
Q 1678 3084 1418 2786 
Q 1159 2488 1159 1978 
L 1159 0 
L 581 0 
L 581 3500 
L 1159 3500 
L 1159 2956 
Q 1356 3278 1631 3431 
Q 1906 3584 2284 3584 
Q 2666 3584 2933 3390 
Q 3200 3197 3328 2828 
z
" transform="scale(0.015625)"/>
      <path id="DejaVuSans-6c" d="M 603 4863 
L 1178 4863 
L 1178 0 
L 603 0 
L 603 4863 
z
" transform="scale(0.015625)"/>
     </defs>
     <use xlink:href="#DejaVuSans-43"/>
     <use xlink:href="#DejaVuSans-61" x="69.824219"/>
     <use xlink:href="#DejaVuSans-70" x="131.103516"/>
     <use xlink:href="#DejaVuSans-74" x="194.580078"/>
     <use xlink:href="#DejaVuSans-69" x="233.789062"/>
     <use xlink:href="#DejaVuSans-6f" x="261.572266"/>
     <use xlink:href="#DejaVuSans-6e" x="322.753906"/>
     <use xlink:href="#DejaVuSans-69" x="386.132812"/>
     <use xlink:href="#DejaVuSans-6e" x="413.916016"/>
     <use xlink:href="#DejaVuSans-67" x="477.294922"/>
     <use xlink:href="#DejaVuSans-20" x="540.771484"/>
     <use xlink:href="#DejaVuSans-4d" x="572.558594"/>
     <use xlink:href="#DejaVuSans-65" x="658.837891"/>
     <use xlink:href="#DejaVuSans-74" x="720.361328"/>
     <use xlink:href="#DejaVuSans-72" x="759.570312"/>
     <use xlink:href="#DejaVuSans-69" x="800.683594"/>
     <use xlink:href="#DejaVuSans-63" x="828.466797"/>
     <use xlink:href="#DejaVuSans-73" x="883.447266"/>
     <use xlink:href="#DejaVuSans-20" x="935.546875"/>
     <use xlink:href="#DejaVuSans-6f" x="967.333984"/>
     <use xlink:href="#DejaVuSans-6e" x="1028.515625"/>
     <use xlink:href="#DejaVuSans-20" x="1091.894531"/>
     <use xlink:href="#DejaVuSans-74" x="1123.681641"/>
     <use xlink:href="#DejaVuSans-68" x="1162.890625"/>
     <use xlink:href="#DejaVuSans-65" x="1226.269531"/>
     <use xlink:href="#DejaVuSans-20" x="1287.792969"/>
     <use xlink:href="#DejaVuSans-34" x="1319.580078"/>
     <use xlink:href="#DejaVuSans-30" x="1383.203125"/>
     <use xlink:href="#DejaVuSans-30" x="1446.826172"/>
     <use xlink:href="#DejaVuSans-2d" x="1510.449219"/>
     <use xlink:href="#DejaVuSans-69" x="1546.533203"/>
     <use xlink:href="#DejaVuSans-74" x="1574.316406"/>
     <use xlink:href="#DejaVuSans-65" x="1613.525391"/>
     <use xlink:href="#DejaVuSans-6d" x="1675.048828"/>
     <use xlink:href="#DejaVuSans-20" x="1772.460938"/>
     <use xlink:href="#DejaVuSans-54" x="1804.248047"/>
     <use xlink:href="#DejaVuSans-65" x="1848.332031"/>
     <use xlink:href="#DejaVuSans-73" x="1909.855469"/>
     <use xlink:href="#DejaVuSans-74" x="1961.955078"/>
     <use xlink:href="#DejaVuSans-20" x="2001.164062"/>
     <use xlink:href="#DejaVuSans-53" x="2032.951172"/>
     <use xlink:href="#DejaVuSans-70" x="2096.427734"/>
     <use xlink:href="#DejaVuSans-6c" x="2159.904297"/>
     <use xlink:href="#DejaVuSans-69" x="2187.6875"/>
     <use xlink:href="#DejaVuSans-74" x="2215.470703"/>
    </g>
   </g>
   <g id="legend_1">
    <g id="patch_8">
     <path d="M 619.868719 75.08375 
L 766.670594 75.08375 
Q 768.870594 75.08375 768.870594 72.88375 
L 768.870594 9.4 
Q 768.870594 7.2 766.670594 7.2 
L 619.868719 7.2 
Q 617.668719 7.2 617.668719 9.4 
L 617.668719 72.88375 
Q 617.668719 75.08375 619.868719 75.08375 
z
" style="fill: #ffffff; opacity: 0.8; stroke: #cccccc; stroke-linejoin: miter"/>
    </g>
    <g id="line2d_13">
     <path d="M 622.068719 16.108281 
L 633.068719 16.108281 
L 644.068719 16.108281 
" style="fill: none; stroke: #1b9e77; stroke-width: 2; stroke-linecap: square"/>
    </g>
    <g id="text_10">
     <!-- SPE+Qwen2-7B -->
     <g transform="translate(652.868719 19.958281) scale(0.11 -0.11)">
      <defs>
       <path id="DejaVuSans-2b" d="M 2944 4013 
L 2944 2272 
L 4684 2272 
L 4684 1741 
L 2944 1741 
L 2944 0 
L 2419 0 
L 2419 1741 
L 678 1741 
L 678 2272 
L 2419 2272 
L 2419 4013 
L 2944 4013 
z
" transform="scale(0.015625)"/>
       <path id="DejaVuSans-51" d="M 2522 4238 
Q 1834 4238 1429 3725 
Q 1025 3213 1025 2328 
Q 1025 1447 1429 934 
Q 1834 422 2522 422 
Q 3209 422 3611 934 
Q 4013 1447 4013 2328 
Q 4013 3213 3611 3725 
Q 3209 4238 2522 4238 
z
M 3406 84 
L 4238 -825 
L 3475 -825 
L 2784 -78 
Q 2681 -84 2626 -87 
Q 2572 -91 2522 -91 
Q 1538 -91 948 567 
Q 359 1225 359 2328 
Q 359 3434 948 4092 
Q 1538 4750 2522 4750 
Q 3503 4750 4090 4092 
Q 4678 3434 4678 2328 
Q 4678 1516 4351 937 
Q 4025 359 3406 84 
z
" transform="scale(0.015625)"/>
       <path id="DejaVuSans-77" d="M 269 3500 
L 844 3500 
L 1563 769 
L 2278 3500 
L 2956 3500 
L 3675 769 
L 4391 3500 
L 4966 3500 
L 4050 0 
L 3372 0 
L 2619 2869 
L 1863 0 
L 1184 0 
L 269 3500 
z
" transform="scale(0.015625)"/>
      </defs>
      <use xlink:href="#DejaVuSans-53"/>
      <use xlink:href="#DejaVuSans-50" x="63.476562"/>
      <use xlink:href="#DejaVuSans-45" x="123.779297"/>
      <use xlink:href="#DejaVuSans-2b" x="186.962891"/>
      <use xlink:href="#DejaVuSans-51" x="270.751953"/>
      <use xlink:href="#DejaVuSans-77" x="349.462891"/>
      <use xlink:href="#DejaVuSans-65" x="431.25"/>
      <use xlink:href="#DejaVuSans-6e" x="492.773438"/>
      <use xlink:href="#DejaVuSans-32" x="556.152344"/>
      <use xlink:href="#DejaVuSans-2d" x="619.775391"/>
      <use xlink:href="#DejaVuSans-37" x="655.859375"/>
      <use xlink:href="#DejaVuSans-42" x="719.482422"/>
     </g>
    </g>
    <g id="line2d_14">
     <path d="M 622.068719 32.254219 
L 633.068719 32.254219 
L 644.068719 32.254219 
" style="fill: none; stroke: #d95f02; stroke-width: 2; stroke-linecap: square"/>
    </g>
    <g id="text_11">
     <!-- LoRA Qwen2-7B -->
     <g transform="translate(652.868719 36.104219) scale(0.11 -0.11)">
      <defs>
       <path id="DejaVuSans-41" d="M 2188 4044 
L 1331 1722 
L 3047 1722 
L 2188 4044 
z
M 1831 4666 
L 2547 4666 
L 4325 0 
L 3669 0 
L 3244 1197 
L 1141 1197 
L 716 0 
L 50 0 
L 1831 4666 
z
" transform="scale(0.015625)"/>
      </defs>
      <use xlink:href="#DejaVuSans-4c"/>
      <use xlink:href="#DejaVuSans-6f" x="53.962891"/>
      <use xlink:href="#DejaVuSans-52" x="115.144531"/>
      <use xlink:href="#DejaVuSans-41" x="180.626953"/>
      <use xlink:href="#DejaVuSans-20" x="249.035156"/>
      <use xlink:href="#DejaVuSans-51" x="280.822266"/>
      <use xlink:href="#DejaVuSans-77" x="359.533203"/>
      <use xlink:href="#DejaVuSans-65" x="441.320312"/>
      <use xlink:href="#DejaVuSans-6e" x="502.84375"/>
      <use xlink:href="#DejaVuSans-32" x="566.222656"/>
      <use xlink:href="#DejaVuSans-2d" x="629.845703"/>
      <use xlink:href="#DejaVuSans-37" x="665.929688"/>
      <use xlink:href="#DejaVuSans-42" x="729.552734"/>
     </g>
    </g>
    <g id="line2d_15">
     <path d="M 622.068719 48.400156 
L 633.068719 48.400156 
L 644.068719 48.400156 
" style="fill: none; stroke: #7570b3; stroke-width: 2; stroke-linecap: square"/>
    </g>
    <g id="text_12">
     <!-- BLIP-2 zero-shot -->
     <g transform="translate(652.868719 52.250156) scale(0.11 -0.11)">
      <defs>
       <path id="DejaVuSans-7a" d="M 353 3500 
L 3084 3500 
L 3084 2975 
L 922 459 
L 3084 459 
L 3084 0 
L 275 0 
L 275 525 
L 2438 3041 
L 353 3041 
L 353 3500 
z
" transform="scale(0.015625)"/>
      </defs>
      <use xlink:href="#DejaVuSans-42"/>
      <use xlink:href="#DejaVuSans-4c" x="68.603516"/>
      <use xlink:href="#DejaVuSans-49" x="124.316406"/>
      <use xlink:href="#DejaVuSans-50" x="153.808594"/>
      <use xlink:href="#DejaVuSans-2d" x="211.861328"/>
      <use xlink:href="#DejaVuSans-32" x="247.945312"/>
      <use xlink:href="#DejaVuSans-20" x="311.568359"/>
      <use xlink:href="#DejaVuSans-7a" x="343.355469"/>
      <use xlink:href="#DejaVuSans-65" x="395.845703"/>
      <use xlink:href="#DejaVuSans-72" x="457.369141"/>
      <use xlink:href="#DejaVuSans-6f" x="496.232422"/>
      <use xlink:href="#DejaVuSans-2d" x="559.289062"/>
      <use xlink:href="#DejaVuSans-73" x="595.373047"/>
      <use xlink:href="#DejaVuSans-68" x="647.472656"/>
      <use xlink:href="#DejaVuSans-6f" x="710.851562"/>
      <use xlink:href="#DejaVuSans-74" x="772.033203"/>
     </g>
    </g>
    <g id="line2d_16">
     <path d="M 622.068719 64.546094 
L 633.068719 64.546094 
L 644.068719 64.546094 
" style="fill: none; stroke: #e7298a; stroke-width: 2; stroke-linecap: square"/>
    </g>
    <g id="text_13">
     <!-- Llama-9B LoRA 4-bit -->
     <g transform="translate(652.868719 68.396094) scale(0.11 -0.11)">
      <defs>
       <path id="DejaVuSans-39" d="M 703 97 
L 703 672 
Q 941 559 1184 500 
Q 1428 441 1663 441 
Q 2288 441 2617 861 
Q 2947 1281 2994 2138 
Q 2813 1869 2534 1725 
Q 2256 1581 1919 1581 
Q 1219 1581 811 2004 
Q 403 2428 403 3163 
Q 403 3881 828 4315 
Q 1253 4750 1959 4750 
Q 2769 4750 3195 4129 
Q 3622 3509 3622 2328 
Q 3622 1225 3098 567 
Q 2575 -91 1691 -91 
Q 1453 -91 1209 -44 
Q 966 3 703 97 
z
M 1959 2075 
Q 2384 2075 2632 2365 
Q 2881 2656 2881 3163 
Q 2881 3666 2632 3958 
Q 2384 4250 1959 4250 
Q 1534 4250 1286 3958 
Q 1038 3666 1038 3163 
Q 1038 2656 1286 2365 
Q 1534 2075 1959 2075 
z
" transform="scale(0.015625)"/>
       <path id="DejaVuSans-62" d="M 3116 1747 
Q 3116 2381 2855 2742 
Q 2594 3103 2138 3103 
Q 1681 3103 1420 2742 
Q 1159 2381 1159 1747 
Q 1159 1113 1420 752 
Q 1681 391 2138 391 
Q 2594 391 2855 752 
Q 3116 1113 3116 1747 
z
M 1159 2969 
Q 1341 3281 1617 3432 
Q 1894 3584 2278 3584 
Q 2916 3584 3314 3078 
Q 3713 2572 3713 1747 
Q 3713 922 3314 415 
Q 2916 -91 2278 -91 
Q 1894 -91 1617 61 
Q 1341 213 1159 525 
L 1159 0 
L 581 0 
L 581 4863 
L 1159 4863 
L 1159 2969 
z
" transform="scale(0.015625)"/>
      </defs>
      <use xlink:href="#DejaVuSans-4c"/>
      <use xlink:href="#DejaVuSans-6c" x="55.712891"/>
      <use xlink:href="#DejaVuSans-61" x="83.496094"/>
      <use xlink:href="#DejaVuSans-6d" x="144.775391"/>
      <use xlink:href="#DejaVuSans-61" x="242.1875"/>
      <use xlink:href="#DejaVuSans-2d" x="303.466797"/>
      <use xlink:href="#DejaVuSans-39" x="339.550781"/>
      <use xlink:href="#DejaVuSans-42" x="403.173828"/>
      <use xlink:href="#DejaVuSans-20" x="471.777344"/>
      <use xlink:href="#DejaVuSans-4c" x="503.564453"/>
      <use xlink:href="#DejaVuSans-6f" x="557.527344"/>
      <use xlink:href="#DejaVuSans-52" x="618.708984"/>
      <use xlink:href="#DejaVuSans-41" x="684.191406"/>
      <use xlink:href="#DejaVuSans-20" x="752.599609"/>
      <use xlink:href="#DejaVuSans-34" x="784.386719"/>
      <use xlink:href="#DejaVuSans-2d" x="848.009766"/>
      <use xlink:href="#DejaVuSans-62" x="884.09375"/>
      <use xlink:href="#DejaVuSans-69" x="947.570312"/>
      <use xlink:href="#DejaVuSans-74" x="975.353516"/>
     </g>
    </g>
   </g>
  </g>
  <g id="text_14">
   <!-- Values min–max normalised per metric. Raw scores in Table "Performance comparison on the 400-item test split". -->
   <g transform="translate(7.2 633.824) scale(0.1 -0.1)">
    <defs>
     <path id="DejaVuSans-56" d="M 1831 0 
L 50 4666 
L 709 4666 
L 2188 738 
L 3669 4666 
L 4325 4666 
L 2547 0 
L 1831 0 
z
" transform="scale(0.015625)"/>
     <path id="DejaVuSans-75" d="M 544 1381 
L 544 3500 
L 1119 3500 
L 1119 1403 
Q 1119 906 1312 657 
Q 1506 409 1894 409 
Q 2359 409 2629 706 
Q 2900 1003 2900 1516 
L 2900 3500 
L 3475 3500 
L 3475 0 
L 2900 0 
L 2900 538 
Q 2691 219 2414 64 
Q 2138 -91 1772 -91 
Q 1169 -91 856 284 
Q 544 659 544 1381 
z
M 1991 3584 
L 1991 3584 
z
" transform="scale(0.015625)"/>
     <path id="DejaVuSans-2013" d="M 313 1978 
L 2888 1978 
L 2888 1528 
L 313 1528 
L 313 1978 
z
" transform="scale(0.015625)"/>
     <path id="DejaVuSans-78" d="M 3513 3500 
L 2247 1797 
L 3578 0 
L 2900 0 
L 1881 1375 
L 863 0 
L 184 0 
L 1544 1831 
L 300 3500 
L 978 3500 
L 1906 2253 
L 2834 3500 
L 3513 3500 
z
" transform="scale(0.015625)"/>
     <path id="DejaVuSans-64" d="M 2906 2969 
L 2906 4863 
L 3481 4863 
L 3481 0 
L 2906 0 
L 2906 525 
Q 2725 213 2448 61 
Q 2172 -91 1784 -91 
Q 1150 -91 751 415 
Q 353 922 353 1747 
Q 353 2572 751 3078 
Q 1150 3584 1784 3584 
Q 2172 3584 2448 3432 
Q 2725 3281 2906 2969 
z
M 947 1747 
Q 947 1113 1208 752 
Q 1469 391 1925 391 
Q 2381 391 2643 752 
Q 2906 1113 2906 1747 
Q 2906 2381 2643 2742 
Q 2381 3103 1925 3103 
Q 1469 3103 1208 2742 
Q 947 2381 947 1747 
z
" transform="scale(0.015625)"/>
     <path id="DejaVuSans-22" d="M 1147 4666 
L 1147 2931 
L 616 2931 
L 616 4666 
L 1147 4666 
z
M 2328 4666 
L 2328 2931 
L 1797 2931 
L 1797 4666 
L 2328 4666 
z
" transform="scale(0.015625)"/>
     <path id="DejaVuSans-66" d="M 2375 4863 
L 2375 4384 
L 1825 4384 
Q 1516 4384 1395 4259 
Q 1275 4134 1275 3809 
L 1275 3500 
L 2222 3500 
L 2222 3053 
L 1275 3053 
L 1275 0 
L 697 0 
L 697 3053 
L 147 3053 
L 147 3500 
L 697 3500 
L 697 3744 
Q 697 4328 969 4595 
Q 1241 4863 1831 4863 
L 2375 4863 
z
" transform="scale(0.015625)"/>
    </defs>
    <use xlink:href="#DejaVuSans-56"/>
    <use xlink:href="#DejaVuSans-61" x="60.658203"/>
    <use xlink:href="#DejaVuSans-6c" x="121.9375"/>
    <use xlink:href="#DejaVuSans-75" x="149.720703"/>
    <use xlink:href="#DejaVuSans-65" x="213.099609"/>
    <use xlink:href="#DejaVuSans-73" x="274.623047"/>
    <use xlink:href="#DejaVuSans-20" x="326.722656"/>
    <use xlink:href="#DejaVuSans-6d" x="358.509766"/>
    <use xlink:href="#DejaVuSans-69" x="455.921875"/>
    <use xlink:href="#DejaVuSans-6e" x="483.705078"/>
    <use xlink:href="#DejaVuSans-2013" x="547.083984"/>
    <use xlink:href="#DejaVuSans-6d" x="597.083984"/>
    <use xlink:href="#DejaVuSans-61" x="694.496094"/>
    <use xlink:href="#DejaVuSans-78" x="755.775391"/>
    <use xlink:href="#DejaVuSans-20" x="814.955078"/>
    <use xlink:href="#DejaVuSans-6e" x="846.742188"/>
    <use xlink:href="#DejaVuSans-6f" x="910.121094"/>
    <use xlink:href="#DejaVuSans-72" x="971.302734"/>
    <use xlink:href="#DejaVuSans-6d" x="1010.666016"/>
    <use xlink:href="#DejaVuSans-61" x="1108.078125"/>
    <use xlink:href="#DejaVuSans-6c" x="1169.357422"/>
    <use xlink:href="#DejaVuSans-69" x="1197.140625"/>
    <use xlink:href="#DejaVuSans-73" x="1224.923828"/>
    <use xlink:href="#DejaVuSans-65" x="1277.023438"/>
    <use xlink:href="#DejaVuSans-64" x="1338.546875"/>
    <use xlink:href="#DejaVuSans-20" x="1402.023438"/>
    <use xlink:href="#DejaVuSans-70" x="1433.810547"/>
    <use xlink:href="#DejaVuSans-65" x="1497.287109"/>
    <use xlink:href="#DejaVuSans-72" x="1558.810547"/>
    <use xlink:href="#DejaVuSans-20" x="1599.923828"/>
    <use xlink:href="#DejaVuSans-6d" x="1631.710938"/>
    <use xlink:href="#DejaVuSans-65" x="1729.123047"/>
    <use xlink:href="#DejaVuSans-74" x="1790.646484"/>
    <use xlink:href="#DejaVuSans-72" x="1829.855469"/>
    <use xlink:href="#DejaVuSans-69" x="1870.96875"/>
    <use xlink:href="#DejaVuSans-63" x="1898.751953"/>
    <use xlink:href="#DejaVuSans-2e" x="1953.732422"/>
    <use xlink:href="#DejaVuSans-20" x="1985.519531"/>
    <use xlink:href="#DejaVuSans-52" x="2017.306641"/>
    <use xlink:href="#DejaVuSans-61" x="2084.539062"/>
    <use xlink:href="#DejaVuSans-77" x="2145.818359"/>
    <use xlink:href="#DejaVuSans-20" x="2227.605469"/>
    <use xlink:href="#DejaVuSans-73" x="2259.392578"/>
    <use xlink:href="#DejaVuSans-63" x="2311.492188"/>
    <use xlink:href="#DejaVuSans-6f" x="2366.472656"/>
    <use xlink:href="#DejaVuSans-72" x="2427.654297"/>
    <use xlink:href="#DejaVuSans-65" x="2466.517578"/>
    <use xlink:href="#DejaVuSans-73" x="2528.041016"/>
    <use xlink:href="#DejaVuSans-20" x="2580.140625"/>
    <use xlink:href="#DejaVuSans-69" x="2611.927734"/>
    <use xlink:href="#DejaVuSans-6e" x="2639.710938"/>
    <use xlink:href="#DejaVuSans-20" x="2703.089844"/>
    <use xlink:href="#DejaVuSans-54" x="2734.876953"/>
    <use xlink:href="#DejaVuSans-61" x="2779.460938"/>
    <use xlink:href="#DejaVuSans-62" x="2840.740234"/>
    <use xlink:href="#DejaVuSans-6c" x="2904.216797"/>
    <use xlink:href="#DejaVuSans-65" x="2932"/>
    <use xlink:href="#DejaVuSans-20" x="2993.523438"/>
    <use xlink:href="#DejaVuSans-22" x="3025.310547"/>
    <use xlink:href="#DejaVuSans-50" x="3071.306641"/>
    <use xlink:href="#DejaVuSans-65" x="3127.984375"/>
    <use xlink:href="#DejaVuSans-72" x="3189.507812"/>
    <use xlink:href="#DejaVuSans-66" x="3230.621094"/>
    <use xlink:href="#DejaVuSans-6f" x="3265.826172"/>
    <use xlink:href="#DejaVuSans-72" x="3327.007812"/>
    <use xlink:href="#DejaVuSans-6d" x="3366.371094"/>
    <use xlink:href="#DejaVuSans-61" x="3463.783203"/>
    <use xlink:href="#DejaVuSans-6e" x="3525.0625"/>
    <use xlink:href="#DejaVuSans-63" x="3588.441406"/>
    <use xlink:href="#DejaVuSans-65" x="3643.421875"/>
    <use xlink:href="#DejaVuSans-20" x="3704.945312"/>
    <use xlink:href="#DejaVuSans-63" x="3736.732422"/>
    <use xlink:href="#DejaVuSans-6f" x="3791.712891"/>
    <use xlink:href="#DejaVuSans-6d" x="3852.894531"/>
    <use xlink:href="#DejaVuSans-70" x="3950.306641"/>
    <use xlink:href="#DejaVuSans-61" x="4013.783203"/>
    <use xlink:href="#DejaVuSans-72" x="4075.0625"/>
    <use xlink:href="#DejaVuSans-69" x="4116.175781"/>
    <use xlink:href="#DejaVuSans-73" x="4143.958984"/>
    <use xlink:href="#DejaVuSans-6f" x="4196.058594"/>
    <use xlink:href="#DejaVuSans-6e" x="4257.240234"/>
    <use xlink:href="#DejaVuSans-20" x="4320.619141"/>
    <use xlink:href="#DejaVuSans-6f" x="4352.40625"/>
    <use xlink:href="#DejaVuSans-6e" x="4413.587891"/>
    <use xlink:href="#DejaVuSans-20" x="4476.966797"/>
    <use xlink:href="#DejaVuSans-74" x="4508.753906"/>
    <use xlink:href="#DejaVuSans-68" x="4547.962891"/>
    <use xlink:href="#DejaVuSans-65" x="4611.341797"/>
    <use xlink:href="#DejaVuSans-20" x="4672.865234"/>
    <use xlink:href="#DejaVuSans-34" x="4704.652344"/>
    <use xlink:href="#DejaVuSans-30" x="4768.275391"/>
    <use xlink:href="#DejaVuSans-30" x="4831.898438"/>
    <use xlink:href="#DejaVuSans-2d" x="4895.521484"/>
    <use xlink:href="#DejaVuSans-69" x="4931.605469"/>
    <use xlink:href="#DejaVuSans-74" x="4959.388672"/>
    <use xlink:href="#DejaVuSans-65" x="4998.597656"/>
    <use xlink:href="#DejaVuSans-6d" x="5060.121094"/>
    <use xlink:href="#DejaVuSans-20" x="5157.533203"/>
    <use xlink:href="#DejaVuSans-74" x="5189.320312"/>
    <use xlink:href="#DejaVuSans-65" x="5228.529297"/>
    <use xlink:href="#DejaVuSans-73" x="5290.052734"/>
    <use xlink:href="#DejaVuSans-74" x="5342.152344"/>
    <use xlink:href="#DejaVuSans-20" x="5381.361328"/>
    <use xlink:href="#DejaVuSans-73" x="5413.148438"/>
    <use xlink:href="#DejaVuSans-70" x="5465.248047"/>
    <use xlink:href="#DejaVuSans-6c" x="5528.724609"/>
    <use xlink:href="#DejaVuSans-69" x="5556.507812"/>
    <use xlink:href="#DejaVuSans-74" x="5584.291016"/>
    <use xlink:href="#DejaVuSans-22" x="5623.5"/>
    <use xlink:href="#DejaVuSans-2e" x="5669.496094"/>
   </g>
  </g>
 </g>
 <defs>
  <clipPath id="p54293cfe7c">
   <path d="M 549.838594 326.024 
C 549.838594 293.262587 543.38531 260.819737 530.84806 230.552137 
C 518.310809 200.284538 499.933411 172.780818 476.767594 149.615 
C 453.601776 126.449183 426.098056 108.071784 395.830456 95.534534 
C 365.562857 82.997284 333.120007 76.544 300.358594 76.544 
C 267.59718 76.544 235.15433 82.997284 204.886731 95.534534 
C 174.619132 108.071784 147.115412 126.449183 123.949594 149.615 
C 100.783776 172.780818 82.406378 200.284538 69.869128 230.552137 
C 57.331878 260.819737 50.878594 293.262587 50.878594 326.024 
C 50.878594 358.785413 57.331878 391.228263 69.869128 421.495863 
C 82.406378 451.763462 100.783776 479.267182 123.949594 502.433 
C 147.115412 525.598817 174.619132 543.976216 204.886731 556.513466 
C 235.15433 569.050716 267.59718 575.504 300.358594 575.504 
C 333.120007 575.504 365.562857 569.050716 395.830456 556.513466 
C 426.098056 543.976216 453.601776 525.598817 476.767594 502.433 
C 499.933411 479.267182 518.310809 451.763462 530.84806 421.495863 
C 543.38531 391.228263 549.838594 358.785413 549.838594 326.024 
M 300.358594 326.024 
C 300.358594 326.024 300.358594 326.024 300.358594 326.024 
C 300.358594 326.024 300.358594 326.024 300.358594 326.024 
C 300.358594 326.024 300.358594 326.024 300.358594 326.024 
C 300.358594 326.024 300.358594 326.024 300.358594 326.024 
C 300.358594 326.024 300.358594 326.024 300.358594 326.024 
C 300.358594 326.024 300.358594 326.024 300.358594 326.024 
C 300.358594 326.024 300.358594 326.024 300.358594 326.024 
C 300.358594 326.024 300.358594 326.024 300.358594 326.024 
C 300.358594 326.024 300.358594 326.024 300.358594 326.024 
C 300.358594 326.024 300.358594 326.024 300.358594 326.024 
C 300.358594 326.024 300.358594 326.024 300.358594 326.024 
C 300.358594 326.024 300.358594 326.024 300.358594 326.024 
C 300.358594 326.024 300.358594 326.024 300.358594 326.024 
C 300.358594 326.024 300.358594 326.024 300.358594 326.024 
C 300.358594 326.024 300.358594 326.024 300.358594 326.024 
C 300.358594 326.024 300.358594 326.024 300.358594 326.024 
z
"/>
  </clipPath>
 </defs>
</svg>
