<?xml version="1.0" encoding="utf-8"?>
<svg viewBox="0 0 512 512" version="1.1" xmlns="http://www.w3.org/2000/svg">
<path fill="#080341" stroke="none" stroke-width="1" opacity="1" d="M128,256 C128,185,184,128,253,128 C299,128,340,154,362,192 L320,192 L320,224 L416,224 L416,128 L384,128 L384,167 C356,124,308,96,253,96 C166,96,96,168,96,256 L128,256 Z" />
<path fill="#080341" stroke="none" stroke-width="1" opacity="1" d="M384,256 C384,327,328,384,259,384 C213,384,172,358,150,320 L192,320 L192,288 L96,288 L96,384 L128,384 L128,345 C156,388,204,416,259,416 C346,416,416,344,416,256 L384,256Z" />
</svg>