<?xml version="1.0" encoding="utf-8"?>
<svg viewBox="0 0 512 512" version="1.1" xmlns="http://www.w3.org/2000/svg">
<path fill="#ffffff" stroke="none" stroke-width="1" opacity="1" d="M16,256 A240,240,0,1,0,496,256 A240,240,0,1,0,16,256 Z" />
<path fill="#8e24aa" stroke="none" stroke-width="1" opacity="1" d="M256,16 C123,16,16,123,16,256 C16,389,123,496,256,496 C389,496,496,389,496,256 C496,123,389,16,256,16 M368,372 L323,372 L323,215 C323,211,323,204,323,196 C323,188,323,182,323,177 L279,372 L232,372 L189,177 C189,182,189,188,189,196 C189,204,189,211,189,215 L189,372 L144,372 L144,140 L214,140 L257,322 L298,140 L368,140 L368,372Z" />
</svg>