<?xml version="1.0" encoding="utf-8"?>
<svg viewBox="0 0 512 512" version="1.1" xmlns="http://www.w3.org/2000/svg">
<path fill="#000000" stroke="none" stroke-width="1" opacity="1" d="M480,448 C480,466,466,480,448,480 L64,480 C46,480,32,466,32,448 L32,64 C32,46,46,32,64,32 L448,32 C466,32,480,46,480,64 L480,448 M448,0 L64,0 C29,0,0,29,0,64 L0,448 C0,483,29,512,64,512 L448,512 C483,512,512,483,512,448 L512,64 C512,29,483,0,448,0 L448,0 M268,181 C265,177,261,176,256,176 C252,176,247,177,244,181 L101,324 C95,330,95,341,101,347 C107,353,118,353,124,347 L256,214 L389,347 C395,353,405,353,411,347 C418,341,418,330,411,324 L268,181Z" />
</svg>