<?xml version="1.0" encoding="utf-8" standalone="no"?>
<!DOCTYPE svg PUBLIC "-//W3C//DTD SVG 1.1//EN"
  "http://www.w3.org/Graphics/SVG/1.1/DTD/svg11.dtd">
<svg xmlns:xlink="http://www.w3.org/1999/xlink" width="608.043437pt" height="408.349625pt" viewBox="0 0 608.043437 408.349625" xmlns="http://www.w3.org/2000/svg" version="1.1">
 <metadata>
  <rdf:RDF xmlns:dc="http://purl.org/dc/elements/1.1/" xmlns:cc="http://creativecommons.org/ns#" xmlns:rdf="http://www.w3.org/1999/02/22-rdf-syntax-ns#">
   <cc:Work>
    <dc:type rdf:resource="http://purl.org/dc/dcmitype/StillImage"/>
    <dc:date>2025-11-14T16:36:33.054128</dc:date>
    <dc:format>image/svg+xml</dc:format>
    <dc:creator>
     <cc:Agent>
      <dc:title>Matplotlib v3.9.2, https://matplotlib.org/</dc:title>
     </cc:Agent>
    </dc:creator>
   </cc:Work>
  </rdf:RDF>
 </metadata>
 <defs>
  <style type="text/css">*{stroke-linejoin: round; stroke-linecap: butt}</style>
 </defs>
 <g id="figure_1">
  <g id="patch_1">
   <path d="M 0 408.349625 
L 608.043437 408.349625 
L 608.043437 0 
L 0 0 
z
" style="fill: #ffffff"/>
  </g>
  <g id="axes_1">
   <g id="patch_2">
    <path d="M 42.843438 355.869937 
L 600.843438 355.869937 
L 600.843438 23.229937 
L 42.843438 23.229937 
z
" style="fill: #ffffff"/>
   </g>
   <g id="patch_3">
    <path d="M 68.207074 355.869937 
L 92.752528 355.869937 
L 92.752528 68.494086 
L 68.207074 68.494086 
z
" clip-path="url(#p74bbe26e97)" style="fill: #1b9e77"/>
   </g>
   <g id="patch_4">
    <path d="M 204.57071 355.869937 
L 229.116165 355.869937 
L 229.116165 351.750557 
L 204.57071 351.750557 
z
" clip-path="url(#p74bbe26e97)" style="fill: #1b9e77"/>
   </g>
   <g id="patch_5">
    <path d="M 340.934347 355.869937 
L 365.479801 355.869937 
L 365.479801 352.142879 
L 340.934347 352.142879 
z
" clip-path="url(#p74bbe26e97)" style="fill: #1b9e77"/>
   </g>
   <g id="patch_6">
    <path d="M 477.297983 355.869937 
L 501.843437 355.869937 
L 501.843437 351.456315 
L 477.297983 351.456315 
z
" clip-path="url(#p74bbe26e97)" style="fill: #1b9e77"/>
   </g>
   <g id="patch_7">
    <path d="M 92.752528 355.869937 
L 117.297983 355.869937 
L 117.297983 39.069937 
L 92.752528 39.069937 
z
" clip-path="url(#p74bbe26e97)" style="fill: #d95f02"/>
   </g>
   <g id="patch_8">
    <path d="M 229.116165 355.869937 
L 253.661619 355.869937 
L 253.661619 353.535622 
L 229.116165 353.535622 
z
" clip-path="url(#p74bbe26e97)" style="fill: #d95f02"/>
   </g>
   <g id="patch_9">
    <path d="M 365.479801 355.869937 
L 390.025256 355.869937 
L 390.025256 353.849479 
L 365.479801 353.849479 
z
" clip-path="url(#p74bbe26e97)" style="fill: #d95f02"/>
   </g>
   <g id="patch_10">
    <path d="M 501.843438 355.869937 
L 526.388892 355.869937 
L 526.388892 353.153108 
L 501.843438 353.153108 
z
" clip-path="url(#p74bbe26e97)" style="fill: #d95f02"/>
   </g>
   <g id="patch_11">
    <path d="M 117.297983 355.869937 
L 141.843437 355.869937 
L 141.843437 45.347089 
L 117.297983 45.347089 
z
" clip-path="url(#p74bbe26e97)" style="fill: #7570b3"/>
   </g>
   <g id="patch_12">
    <path d="M 253.661619 355.869937 
L 278.207074 355.869937 
L 278.207074 355.840513 
L 253.661619 355.840513 
z
" clip-path="url(#p74bbe26e97)" style="fill: #7570b3"/>
   </g>
   <g id="patch_13">
    <path d="M 390.025256 355.869937 
L 414.57071 355.869937 
L 414.57071 355.399151 
L 390.025256 355.399151 
z
" clip-path="url(#p74bbe26e97)" style="fill: #7570b3"/>
   </g>
   <g id="patch_14">
    <path d="M 526.388892 355.869937 
L 550.934347 355.869937 
L 550.934347 354.663547 
L 526.388892 354.663547 
z
" clip-path="url(#p74bbe26e97)" style="fill: #7570b3"/>
   </g>
   <g id="patch_15">
    <path d="M 141.843437 355.869937 
L 166.388892 355.869937 
L 166.388892 173.734458 
L 141.843437 173.734458 
z
" clip-path="url(#p74bbe26e97)" style="fill: #e7298a"/>
   </g>
   <g id="patch_16">
    <path d="M 278.207074 355.869937 
L 302.752528 355.869937 
L 302.752528 355.095102 
L 278.207074 355.095102 
z
" clip-path="url(#p74bbe26e97)" style="fill: #e7298a"/>
   </g>
   <g id="patch_17">
    <path d="M 414.57071 355.869937 
L 439.116165 355.869937 
L 439.116165 354.663547 
L 414.57071 354.663547 
z
" clip-path="url(#p74bbe26e97)" style="fill: #e7298a"/>
   </g>
   <g id="patch_18">
    <path d="M 550.934347 355.869937 
L 575.479801 355.869937 
L 575.479801 354.938173 
L 550.934347 354.938173 
z
" clip-path="url(#p74bbe26e97)" style="fill: #e7298a"/>
   </g>
   <g id="matplotlib.axis_1">
    <g id="xtick_1">
     <g id="line2d_1">
      <defs>
       <path id="m8996b996f5" d="M 0 0 
L 0 3.5 
" style="stroke: #000000; stroke-width: 0.8"/>
      </defs>
      <g>
       <use xlink:href="#m8996b996f5" x="117.297983" y="355.869937" style="stroke: #000000; stroke-width: 0.8"/>
      </g>
     </g>
     <g id="text_1">
      <!-- CLIPScore -->
      <g transform="translate(90.051499 371.228219) scale(0.11 -0.11)">
       <defs>
        <path id="DejaVuSans-43" d="M 4122 4306 
L 4122 3641 
Q 3803 3938 3442 4084 
Q 3081 4231 2675 4231 
Q 1875 4231 1450 3742 
Q 1025 3253 1025 2328 
Q 1025 1406 1450 917 
Q 1875 428 2675 428 
Q 3081 428 3442 575 
Q 3803 722 4122 1019 
L 4122 359 
Q 3791 134 3420 21 
Q 3050 -91 2638 -91 
Q 1578 -91 968 557 
Q 359 1206 359 2328 
Q 359 3453 968 4101 
Q 1578 4750 2638 4750 
Q 3056 4750 3426 4639 
Q 3797 4528 4122 4306 
z
" transform="scale(0.015625)"/>
        <path id="DejaVuSans-4c" d="M 628 4666 
L 1259 4666 
L 1259 531 
L 3531 531 
L 3531 0 
L 628 0 
L 628 4666 
z
" transform="scale(0.015625)"/>
        <path id="DejaVuSans-49" d="M 628 4666 
L 1259 4666 
L 1259 0 
L 628 0 
L 628 4666 
z
" transform="scale(0.015625)"/>
        <path id="DejaVuSans-50" d="M 1259 4147 
L 1259 2394 
L 2053 2394 
Q 2494 2394 2734 2622 
Q 2975 2850 2975 3272 
Q 2975 3691 2734 3919 
Q 2494 4147 2053 4147 
L 1259 4147 
z
M 628 4666 
L 2053 4666 
Q 2838 4666 3239 4311 
Q 3641 3956 3641 3272 
Q 3641 2581 3239 2228 
Q 2838 1875 2053 1875 
L 1259 1875 
L 1259 0 
L 628 0 
L 628 4666 
z
" transform="scale(0.015625)"/>
        <path id="DejaVuSans-53" d="M 3425 4513 
L 3425 3897 
Q 3066 4069 2747 4153 
Q 2428 4238 2131 4238 
Q 1616 4238 1336 4038 
Q 1056 3838 1056 3469 
Q 1056 3159 1242 3001 
Q 1428 2844 1947 2747 
L 2328 2669 
Q 3034 2534 3370 2195 
Q 3706 1856 3706 1288 
Q 3706 609 3251 259 
Q 2797 -91 1919 -91 
Q 1588 -91 1214 -16 
Q 841 59 441 206 
L 441 856 
Q 825 641 1194 531 
Q 1563 422 1919 422 
Q 2459 422 2753 634 
Q 3047 847 3047 1241 
Q 3047 1584 2836 1778 
Q 2625 1972 2144 2069 
L 1759 2144 
Q 1053 2284 737 2584 
Q 422 2884 422 3419 
Q 422 4038 858 4394 
Q 1294 4750 2059 4750 
Q 2388 4750 2728 4690 
Q 3069 4631 3425 4513 
z
" transform="scale(0.015625)"/>
        <path id="DejaVuSans-63" d="M 3122 3366 
L 3122 2828 
Q 2878 2963 2633 3030 
Q 2388 3097 2138 3097 
Q 1578 3097 1268 2742 
Q 959 2388 959 1747 
Q 959 1106 1268 751 
Q 1578 397 2138 397 
Q 2388 397 2633 464 
Q 2878 531 3122 666 
L 3122 134 
Q 2881 22 2623 -34 
Q 2366 -91 2075 -91 
Q 1284 -91 818 406 
Q 353 903 353 1747 
Q 353 2603 823 3093 
Q 1294 3584 2113 3584 
Q 2378 3584 2631 3529 
Q 2884 3475 3122 3366 
z
" transform="scale(0.015625)"/>
        <path id="DejaVuSans-6f" d="M 1959 3097 
Q 1497 3097 1228 2736 
Q 959 2375 959 1747 
Q 959 1119 1226 758 
Q 1494 397 1959 397 
Q 2419 397 2687 759 
Q 2956 1122 2956 1747 
Q 2956 2369 2687 2733 
Q 2419 3097 1959 3097 
z
M 1959 3584 
Q 2709 3584 3137 3096 
Q 3566 2609 3566 1747 
Q 3566 888 3137 398 
Q 2709 -91 1959 -91 
Q 1206 -91 779 398 
Q 353 888 353 1747 
Q 353 2609 779 3096 
Q 1206 3584 1959 3584 
z
" transform="scale(0.015625)"/>
        <path id="DejaVuSans-72" d="M 2631 2963 
Q 2534 3019 2420 3045 
Q 2306 3072 2169 3072 
Q 1681 3072 1420 2755 
Q 1159 2438 1159 1844 
L 1159 0 
L 581 0 
L 581 3500 
L 1159 3500 
L 1159 2956 
Q 1341 3275 1631 3429 
Q 1922 3584 2338 3584 
Q 2397 3584 2469 3576 
Q 2541 3569 2628 3553 
L 2631 2963 
z
" transform="scale(0.015625)"/>
        <path id="DejaVuSans-65" d="M 3597 1894 
L 3597 1613 
L 953 1613 
Q 991 1019 1311 708 
Q 1631 397 2203 397 
Q 2534 397 2845 478 
Q 3156 559 3463 722 
L 3463 178 
Q 3153 47 2828 -22 
Q 2503 -91 2169 -91 
Q 1331 -91 842 396 
Q 353 884 353 1716 
Q 353 2575 817 3079 
Q 1281 3584 2069 3584 
Q 2775 3584 3186 3129 
Q 3597 2675 3597 1894 
z
M 3022 2063 
Q 3016 2534 2758 2815 
Q 2500 3097 2075 3097 
Q 1594 3097 1305 2825 
Q 1016 2553 972 2059 
L 3022 2063 
z
" transform="scale(0.015625)"/>
       </defs>
       <use xlink:href="#DejaVuSans-43"/>
       <use xlink:href="#DejaVuSans-4c" x="69.824219"/>
       <use xlink:href="#DejaVuSans-49" x="125.537109"/>
       <use xlink:href="#DejaVuSans-50" x="155.029297"/>
       <use xlink:href="#DejaVuSans-53" x="215.332031"/>
       <use xlink:href="#DejaVuSans-63" x="278.808594"/>
       <use xlink:href="#DejaVuSans-6f" x="333.789062"/>
       <use xlink:href="#DejaVuSans-72" x="394.970703"/>
       <use xlink:href="#DejaVuSans-65" x="433.833984"/>
      </g>
     </g>
    </g>
    <g id="xtick_2">
     <g id="line2d_2">
      <g>
       <use xlink:href="#m8996b996f5" x="253.661619" y="355.869937" style="stroke: #000000; stroke-width: 0.8"/>
      </g>
     </g>
     <g id="text_2">
      <!-- BLEU-1 -->
      <g transform="translate(233.839276 371.228219) scale(0.11 -0.11)">
       <defs>
        <path id="DejaVuSans-42" d="M 1259 2228 
L 1259 519 
L 2272 519 
Q 2781 519 3026 730 
Q 3272 941 3272 1375 
Q 3272 1813 3026 2020 
Q 2781 2228 2272 2228 
L 1259 2228 
z
M 1259 4147 
L 1259 2741 
L 2194 2741 
Q 2656 2741 2882 2914 
Q 3109 3088 3109 3444 
Q 3109 3797 2882 3972 
Q 2656 4147 2194 4147 
L 1259 4147 
z
M 628 4666 
L 2241 4666 
Q 2963 4666 3353 4366 
Q 3744 4066 3744 3513 
Q 3744 3084 3544 2831 
Q 3344 2578 2956 2516 
Q 3422 2416 3680 2098 
Q 3938 1781 3938 1306 
Q 3938 681 3513 340 
Q 3088 0 2303 0 
L 628 0 
L 628 4666 
z
" transform="scale(0.015625)"/>
        <path id="DejaVuSans-45" d="M 628 4666 
L 3578 4666 
L 3578 4134 
L 1259 4134 
L 1259 2753 
L 3481 2753 
L 3481 2222 
L 1259 2222 
L 1259 531 
L 3634 531 
L 3634 0 
L 628 0 
L 628 4666 
z
" transform="scale(0.015625)"/>
        <path id="DejaVuSans-55" d="M 556 4666 
L 1191 4666 
L 1191 1831 
Q 1191 1081 1462 751 
Q 1734 422 2344 422 
Q 2950 422 3222 751 
Q 3494 1081 3494 1831 
L 3494 4666 
L 4128 4666 
L 4128 1753 
Q 4128 841 3676 375 
Q 3225 -91 2344 -91 
Q 1459 -91 1007 375 
Q 556 841 556 1753 
L 556 4666 
z
" transform="scale(0.015625)"/>
        <path id="DejaVuSans-2d" d="M 313 2009 
L 1997 2009 
L 1997 1497 
L 313 1497 
L 313 2009 
z
" transform="scale(0.015625)"/>
        <path id="DejaVuSans-31" d="M 794 531 
L 1825 531 
L 1825 4091 
L 703 3866 
L 703 4441 
L 1819 4666 
L 2450 4666 
L 2450 531 
L 3481 531 
L 3481 0 
L 794 0 
L 794 531 
z
" transform="scale(0.015625)"/>
       </defs>
       <use xlink:href="#DejaVuSans-42"/>
       <use xlink:href="#DejaVuSans-4c" x="68.603516"/>
       <use xlink:href="#DejaVuSans-45" x="124.316406"/>
       <use xlink:href="#DejaVuSans-55" x="187.5"/>
       <use xlink:href="#DejaVuSans-2d" x="260.693359"/>
       <use xlink:href="#DejaVuSans-31" x="296.777344"/>
      </g>
     </g>
    </g>
    <g id="xtick_3">
     <g id="line2d_3">
      <g>
       <use xlink:href="#m8996b996f5" x="390.025256" y="355.869937" style="stroke: #000000; stroke-width: 0.8"/>
      </g>
     </g>
     <g id="text_3">
      <!-- METEOR -->
      <g transform="translate(366.818693 371.228219) scale(0.11 -0.11)">
       <defs>
        <path id="DejaVuSans-4d" d="M 628 4666 
L 1569 4666 
L 2759 1491 
L 3956 4666 
L 4897 4666 
L 4897 0 
L 4281 0 
L 4281 4097 
L 3078 897 
L 2444 897 
L 1241 4097 
L 1241 0 
L 628 0 
L 628 4666 
z
" transform="scale(0.015625)"/>
        <path id="DejaVuSans-54" d="M -19 4666 
L 3928 4666 
L 3928 4134 
L 2272 4134 
L 2272 0 
L 1638 0 
L 1638 4134 
L -19 4134 
L -19 4666 
z
" transform="scale(0.015625)"/>
        <path id="DejaVuSans-4f" d="M 2522 4238 
Q 1834 4238 1429 3725 
Q 1025 3213 1025 2328 
Q 1025 1447 1429 934 
Q 1834 422 2522 422 
Q 3209 422 3611 934 
Q 4013 1447 4013 2328 
Q 4013 3213 3611 3725 
Q 3209 4238 2522 4238 
z
M 2522 4750 
Q 3503 4750 4090 4092 
Q 4678 3434 4678 2328 
Q 4678 1225 4090 567 
Q 3503 -91 2522 -91 
Q 1538 -91 948 565 
Q 359 1222 359 2328 
Q 359 3434 948 4092 
Q 1538 4750 2522 4750 
z
" transform="scale(0.015625)"/>
        <path id="DejaVuSans-52" d="M 2841 2188 
Q 3044 2119 3236 1894 
Q 3428 1669 3622 1275 
L 4263 0 
L 3584 0 
L 2988 1197 
Q 2756 1666 2539 1819 
Q 2322 1972 1947 1972 
L 1259 1972 
L 1259 0 
L 628 0 
L 628 4666 
L 2053 4666 
Q 2853 4666 3247 4331 
Q 3641 3997 3641 3322 
Q 3641 2881 3436 2590 
Q 3231 2300 2841 2188 
z
M 1259 4147 
L 1259 2491 
L 2053 2491 
Q 2509 2491 2742 2702 
Q 2975 2913 2975 3322 
Q 2975 3731 2742 3939 
Q 2509 4147 2053 4147 
L 1259 4147 
z
" transform="scale(0.015625)"/>
       </defs>
       <use xlink:href="#DejaVuSans-4d"/>
       <use xlink:href="#DejaVuSans-45" x="86.279297"/>
       <use xlink:href="#DejaVuSans-54" x="149.462891"/>
       <use xlink:href="#DejaVuSans-45" x="210.546875"/>
       <use xlink:href="#DejaVuSans-4f" x="273.730469"/>
       <use xlink:href="#DejaVuSans-52" x="352.441406"/>
      </g>
     </g>
    </g>
    <g id="xtick_4">
     <g id="line2d_4">
      <g>
       <use xlink:href="#m8996b996f5" x="526.388892" y="355.869937" style="stroke: #000000; stroke-width: 0.8"/>
      </g>
     </g>
     <g id="text_4">
      <!-- ROUGE-L -->
      <g transform="translate(501.426626 371.228219) scale(0.11 -0.11)">
       <defs>
        <path id="DejaVuSans-47" d="M 3809 666 
L 3809 1919 
L 2778 1919 
L 2778 2438 
L 4434 2438 
L 4434 434 
Q 4069 175 3628 42 
Q 3188 -91 2688 -91 
Q 1594 -91 976 548 
Q 359 1188 359 2328 
Q 359 3472 976 4111 
Q 1594 4750 2688 4750 
Q 3144 4750 3555 4637 
Q 3966 4525 4313 4306 
L 4313 3634 
Q 3963 3931 3569 4081 
Q 3175 4231 2741 4231 
Q 1884 4231 1454 3753 
Q 1025 3275 1025 2328 
Q 1025 1384 1454 906 
Q 1884 428 2741 428 
Q 3075 428 3337 486 
Q 3600 544 3809 666 
z
" transform="scale(0.015625)"/>
       </defs>
       <use xlink:href="#DejaVuSans-52"/>
       <use xlink:href="#DejaVuSans-4f" x="69.482422"/>
       <use xlink:href="#DejaVuSans-55" x="148.193359"/>
       <use xlink:href="#DejaVuSans-47" x="221.386719"/>
       <use xlink:href="#DejaVuSans-45" x="298.876953"/>
       <use xlink:href="#DejaVuSans-2d" x="362.060547"/>
       <use xlink:href="#DejaVuSans-4c" x="398.144531"/>
      </g>
     </g>
    </g>
   </g>
   <g id="matplotlib.axis_2">
    <g id="ytick_1">
     <g id="line2d_5">
      <path d="M 42.843438 355.869937 
L 600.843438 355.869937 
" clip-path="url(#p74bbe26e97)" style="fill: none; stroke-dasharray: 2.22,0.96; stroke-dashoffset: 0; stroke: #b0b0b0; stroke-opacity: 0.6; stroke-width: 0.6"/>
     </g>
     <g id="line2d_6">
      <defs>
       <path id="ma7200f4971" d="M 0 0 
L -3.5 0 
" style="stroke: #000000; stroke-width: 0.8"/>
      </defs>
      <g>
       <use xlink:href="#ma7200f4971" x="42.843438" y="355.869937" style="stroke: #000000; stroke-width: 0.8"/>
      </g>
     </g>
     <g id="text_5">
      <!-- 0 -->
      <g transform="translate(28.844688 360.049078) scale(0.11 -0.11)">
       <defs>
        <path id="DejaVuSans-30" d="M 2034 4250 
Q 1547 4250 1301 3770 
Q 1056 3291 1056 2328 
Q 1056 1369 1301 889 
Q 1547 409 2034 409 
Q 2525 409 2770 889 
Q 3016 1369 3016 2328 
Q 3016 3291 2770 3770 
Q 2525 4250 2034 4250 
z
M 2034 4750 
Q 2819 4750 3233 4129 
Q 3647 3509 3647 2328 
Q 3647 1150 3233 529 
Q 2819 -91 2034 -91 
Q 1250 -91 836 529 
Q 422 1150 422 2328 
Q 422 3509 836 4129 
Q 1250 4750 2034 4750 
z
" transform="scale(0.015625)"/>
       </defs>
       <use xlink:href="#DejaVuSans-30"/>
      </g>
     </g>
    </g>
    <g id="ytick_2">
     <g id="line2d_7">
      <path d="M 42.843438 306.82969 
L 600.843438 306.82969 
" clip-path="url(#p74bbe26e97)" style="fill: none; stroke-dasharray: 2.22,0.96; stroke-dashoffset: 0; stroke: #b0b0b0; stroke-opacity: 0.6; stroke-width: 0.6"/>
     </g>
     <g id="line2d_8">
      <g>
       <use xlink:href="#ma7200f4971" x="42.843438" y="306.82969" style="stroke: #000000; stroke-width: 0.8"/>
      </g>
     </g>
     <g id="text_6">
      <!-- 5 -->
      <g transform="translate(28.844688 311.00883) scale(0.11 -0.11)">
       <defs>
        <path id="DejaVuSans-35" d="M 691 4666 
L 3169 4666 
L 3169 4134 
L 1269 4134 
L 1269 2991 
Q 1406 3038 1543 3061 
Q 1681 3084 1819 3084 
Q 2600 3084 3056 2656 
Q 3513 2228 3513 1497 
Q 3513 744 3044 326 
Q 2575 -91 1722 -91 
Q 1428 -91 1123 -41 
Q 819 9 494 109 
L 494 744 
Q 775 591 1075 516 
Q 1375 441 1709 441 
Q 2250 441 2565 725 
Q 2881 1009 2881 1497 
Q 2881 1984 2565 2268 
Q 2250 2553 1709 2553 
Q 1456 2553 1204 2497 
Q 953 2441 691 2322 
L 691 4666 
z
" transform="scale(0.015625)"/>
       </defs>
       <use xlink:href="#DejaVuSans-35"/>
      </g>
     </g>
    </g>
    <g id="ytick_3">
     <g id="line2d_9">
      <path d="M 42.843438 257.789442 
L 600.843438 257.789442 
" clip-path="url(#p74bbe26e97)" style="fill: none; stroke-dasharray: 2.22,0.96; stroke-dashoffset: 0; stroke: #b0b0b0; stroke-opacity: 0.6; stroke-width: 0.6"/>
     </g>
     <g id="line2d_10">
      <g>
       <use xlink:href="#ma7200f4971" x="42.843438" y="257.789442" style="stroke: #000000; stroke-width: 0.8"/>
      </g>
     </g>
     <g id="text_7">
      <!-- 10 -->
      <g transform="translate(21.845938 261.968583) scale(0.11 -0.11)">
       <use xlink:href="#DejaVuSans-31"/>
       <use xlink:href="#DejaVuSans-30" x="63.623047"/>
      </g>
     </g>
    </g>
    <g id="ytick_4">
     <g id="line2d_11">
      <path d="M 42.843438 208.749194 
L 600.843438 208.749194 
" clip-path="url(#p74bbe26e97)" style="fill: none; stroke-dasharray: 2.22,0.96; stroke-dashoffset: 0; stroke: #b0b0b0; stroke-opacity: 0.6; stroke-width: 0.6"/>
     </g>
     <g id="line2d_12">
      <g>
       <use xlink:href="#ma7200f4971" x="42.843438" y="208.749194" style="stroke: #000000; stroke-width: 0.8"/>
      </g>
     </g>
     <g id="text_8">
      <!-- 15 -->
      <g transform="translate(21.845938 212.928335) scale(0.11 -0.11)">
       <use xlink:href="#DejaVuSans-31"/>
       <use xlink:href="#DejaVuSans-35" x="63.623047"/>
      </g>
     </g>
    </g>
    <g id="ytick_5">
     <g id="line2d_13">
      <path d="M 42.843438 159.708947 
L 600.843438 159.708947 
" clip-path="url(#p74bbe26e97)" style="fill: none; stroke-dasharray: 2.22,0.96; stroke-dashoffset: 0; stroke: #b0b0b0; stroke-opacity: 0.6; stroke-width: 0.6"/>
     </g>
     <g id="line2d_14">
      <g>
       <use xlink:href="#ma7200f4971" x="42.843438" y="159.708947" style="stroke: #000000; stroke-width: 0.8"/>
      </g>
     </g>
     <g id="text_9">
      <!-- 20 -->
      <g transform="translate(21.845938 163.888087) scale(0.11 -0.11)">
       <defs>
        <path id="DejaVuSans-32" d="M 1228 531 
L 3431 531 
L 3431 0 
L 469 0 
L 469 531 
Q 828 903 1448 1529 
Q 2069 2156 2228 2338 
Q 2531 2678 2651 2914 
Q 2772 3150 2772 3378 
Q 2772 3750 2511 3984 
Q 2250 4219 1831 4219 
Q 1534 4219 1204 4116 
Q 875 4013 500 3803 
L 500 4441 
Q 881 4594 1212 4672 
Q 1544 4750 1819 4750 
Q 2544 4750 2975 4387 
Q 3406 4025 3406 3419 
Q 3406 3131 3298 2873 
Q 3191 2616 2906 2266 
Q 2828 2175 2409 1742 
Q 1991 1309 1228 531 
z
" transform="scale(0.015625)"/>
       </defs>
       <use xlink:href="#DejaVuSans-32"/>
       <use xlink:href="#DejaVuSans-30" x="63.623047"/>
      </g>
     </g>
    </g>
    <g id="ytick_6">
     <g id="line2d_15">
      <path d="M 42.843438 110.668699 
L 600.843438 110.668699 
" clip-path="url(#p74bbe26e97)" style="fill: none; stroke-dasharray: 2.22,0.96; stroke-dashoffset: 0; stroke: #b0b0b0; stroke-opacity: 0.6; stroke-width: 0.6"/>
     </g>
     <g id="line2d_16">
      <g>
       <use xlink:href="#ma7200f4971" x="42.843438" y="110.668699" style="stroke: #000000; stroke-width: 0.8"/>
      </g>
     </g>
     <g id="text_10">
      <!-- 25 -->
      <g transform="translate(21.845938 114.84784) scale(0.11 -0.11)">
       <use xlink:href="#DejaVuSans-32"/>
       <use xlink:href="#DejaVuSans-35" x="63.623047"/>
      </g>
     </g>
    </g>
    <g id="ytick_7">
     <g id="line2d_17">
      <path d="M 42.843438 61.628451 
L 600.843438 61.628451 
" clip-path="url(#p74bbe26e97)" style="fill: none; stroke-dasharray: 2.22,0.96; stroke-dashoffset: 0; stroke: #b0b0b0; stroke-opacity: 0.6; stroke-width: 0.6"/>
     </g>
     <g id="line2d_18">
      <g>
       <use xlink:href="#ma7200f4971" x="42.843438" y="61.628451" style="stroke: #000000; stroke-width: 0.8"/>
      </g>
     </g>
     <g id="text_11">
      <!-- 30 -->
      <g transform="translate(21.845938 65.807592) scale(0.11 -0.11)">
       <defs>
        <path id="DejaVuSans-33" d="M 2597 2516 
Q 3050 2419 3304 2112 
Q 3559 1806 3559 1356 
Q 3559 666 3084 287 
Q 2609 -91 1734 -91 
Q 1441 -91 1130 -33 
Q 819 25 488 141 
L 488 750 
Q 750 597 1062 519 
Q 1375 441 1716 441 
Q 2309 441 2620 675 
Q 2931 909 2931 1356 
Q 2931 1769 2642 2001 
Q 2353 2234 1838 2234 
L 1294 2234 
L 1294 2753 
L 1863 2753 
Q 2328 2753 2575 2939 
Q 2822 3125 2822 3475 
Q 2822 3834 2567 4026 
Q 2313 4219 1838 4219 
Q 1578 4219 1281 4162 
Q 984 4106 628 3988 
L 628 4550 
Q 988 4650 1302 4700 
Q 1616 4750 1894 4750 
Q 2613 4750 3031 4423 
Q 3450 4097 3450 3541 
Q 3450 3153 3228 2886 
Q 3006 2619 2597 2516 
z
" transform="scale(0.015625)"/>
       </defs>
       <use xlink:href="#DejaVuSans-33"/>
       <use xlink:href="#DejaVuSans-30" x="63.623047"/>
      </g>
     </g>
    </g>
    <g id="text_12">
     <!-- Score (native scale) -->
     <g transform="translate(15.558281 244.091891) rotate(-90) scale(0.11 -0.11)">
      <defs>
       <path id="DejaVuSans-20" transform="scale(0.015625)"/>
       <path id="DejaVuSans-28" d="M 1984 4856 
Q 1566 4138 1362 3434 
Q 1159 2731 1159 2009 
Q 1159 1288 1364 580 
Q 1569 -128 1984 -844 
L 1484 -844 
Q 1016 -109 783 600 
Q 550 1309 550 2009 
Q 550 2706 781 3412 
Q 1013 4119 1484 4856 
L 1984 4856 
z
" transform="scale(0.015625)"/>
       <path id="DejaVuSans-6e" d="M 3513 2113 
L 3513 0 
L 2938 0 
L 2938 2094 
Q 2938 2591 2744 2837 
Q 2550 3084 2163 3084 
Q 1697 3084 1428 2787 
Q 1159 2491 1159 1978 
L 1159 0 
L 581 0 
L 581 3500 
L 1159 3500 
L 1159 2956 
Q 1366 3272 1645 3428 
Q 1925 3584 2291 3584 
Q 2894 3584 3203 3211 
Q 3513 2838 3513 2113 
z
" transform="scale(0.015625)"/>
       <path id="DejaVuSans-61" d="M 2194 1759 
Q 1497 1759 1228 1600 
Q 959 1441 959 1056 
Q 959 750 1161 570 
Q 1363 391 1709 391 
Q 2188 391 2477 730 
Q 2766 1069 2766 1631 
L 2766 1759 
L 2194 1759 
z
M 3341 1997 
L 3341 0 
L 2766 0 
L 2766 531 
Q 2569 213 2275 61 
Q 1981 -91 1556 -91 
Q 1019 -91 701 211 
Q 384 513 384 1019 
Q 384 1609 779 1909 
Q 1175 2209 1959 2209 
L 2766 2209 
L 2766 2266 
Q 2766 2663 2505 2880 
Q 2244 3097 1772 3097 
Q 1472 3097 1187 3025 
Q 903 2953 641 2809 
L 641 3341 
Q 956 3463 1253 3523 
Q 1550 3584 1831 3584 
Q 2591 3584 2966 3190 
Q 3341 2797 3341 1997 
z
" transform="scale(0.015625)"/>
       <path id="DejaVuSans-74" d="M 1172 4494 
L 1172 3500 
L 2356 3500 
L 2356 3053 
L 1172 3053 
L 1172 1153 
Q 1172 725 1289 603 
Q 1406 481 1766 481 
L 2356 481 
L 2356 0 
L 1766 0 
Q 1100 0 847 248 
Q 594 497 594 1153 
L 594 3053 
L 172 3053 
L 172 3500 
L 594 3500 
L 594 4494 
L 1172 4494 
z
" transform="scale(0.015625)"/>
       <path id="DejaVuSans-69" d="M 603 3500 
L 1178 3500 
L 1178 0 
L 603 0 
L 603 3500 
z
M 603 4863 
L 1178 4863 
L 1178 4134 
L 603 4134 
L 603 4863 
z
" transform="scale(0.015625)"/>
       <path id="DejaVuSans-76" d="M 191 3500 
L 800 3500 
L 1894 563 
L 2988 3500 
L 3597 3500 
L 2284 0 
L 1503 0 
L 191 3500 
z
" transform="scale(0.015625)"/>
       <path id="DejaVuSans-73" d="M 2834 3397 
L 2834 2853 
Q 2591 2978 2328 3040 
Q 2066 3103 1784 3103 
Q 1356 3103 1142 2972 
Q 928 2841 928 2578 
Q 928 2378 1081 2264 
Q 1234 2150 1697 2047 
L 1894 2003 
Q 2506 1872 2764 1633 
Q 3022 1394 3022 966 
Q 3022 478 2636 193 
Q 2250 -91 1575 -91 
Q 1294 -91 989 -36 
Q 684 19 347 128 
L 347 722 
Q 666 556 975 473 
Q 1284 391 1588 391 
Q 1994 391 2212 530 
Q 2431 669 2431 922 
Q 2431 1156 2273 1281 
Q 2116 1406 1581 1522 
L 1381 1569 
Q 847 1681 609 1914 
Q 372 2147 372 2553 
Q 372 3047 722 3315 
Q 1072 3584 1716 3584 
Q 2034 3584 2315 3537 
Q 2597 3491 2834 3397 
z
" transform="scale(0.015625)"/>
       <path id="DejaVuSans-6c" d="M 603 4863 
L 1178 4863 
L 1178 0 
L 603 0 
L 603 4863 
z
" transform="scale(0.015625)"/>
       <path id="DejaVuSans-29" d="M 513 4856 
L 1013 4856 
Q 1481 4119 1714 3412 
Q 1947 2706 1947 2009 
Q 1947 1309 1714 600 
Q 1481 -109 1013 -844 
L 513 -844 
Q 928 -128 1133 580 
Q 1338 1288 1338 2009 
Q 1338 2731 1133 3434 
Q 928 4138 513 4856 
z
" transform="scale(0.015625)"/>
      </defs>
      <use xlink:href="#DejaVuSans-53"/>
      <use xlink:href="#DejaVuSans-63" x="63.476562"/>
      <use xlink:href="#DejaVuSans-6f" x="118.457031"/>
      <use xlink:href="#DejaVuSans-72" x="179.638672"/>
      <use xlink:href="#DejaVuSans-65" x="218.501953"/>
      <use xlink:href="#DejaVuSans-20" x="280.025391"/>
      <use xlink:href="#DejaVuSans-28" x="311.8125"/>
      <use xlink:href="#DejaVuSans-6e" x="350.826172"/>
      <use xlink:href="#DejaVuSans-61" x="414.205078"/>
      <use xlink:href="#DejaVuSans-74" x="475.484375"/>
      <use xlink:href="#DejaVuSans-69" x="514.693359"/>
      <use xlink:href="#DejaVuSans-76" x="542.476562"/>
      <use xlink:href="#DejaVuSans-65" x="601.65625"/>
      <use xlink:href="#DejaVuSans-20" x="663.179688"/>
      <use xlink:href="#DejaVuSans-73" x="694.966797"/>
      <use xlink:href="#DejaVuSans-63" x="747.066406"/>
      <use xlink:href="#DejaVuSans-61" x="802.046875"/>
      <use xlink:href="#DejaVuSans-6c" x="863.326172"/>
      <use xlink:href="#DejaVuSans-65" x="891.109375"/>
      <use xlink:href="#DejaVuSans-29" x="952.632812"/>
     </g>
    </g>
   </g>
   <g id="patch_19">
    <path d="M 42.843438 355.869937 
L 42.843438 23.229937 
" style="fill: none; stroke: #000000; stroke-width: 0.8; stroke-linejoin: miter; stroke-linecap: square"/>
   </g>
   <g id="patch_20">
    <path d="M 600.843438 355.869937 
L 600.843438 23.229937 
" style="fill: none; stroke: #000000; stroke-width: 0.8; stroke-linejoin: miter; stroke-linecap: square"/>
   </g>
   <g id="patch_21">
    <path d="M 42.843438 355.869937 
L 600.843437 355.869937 
" style="fill: none; stroke: #000000; stroke-width: 0.8; stroke-linejoin: miter; stroke-linecap: square"/>
   </g>
   <g id="patch_22">
    <path d="M 42.843438 23.229937 
L 600.843437 23.229937 
" style="fill: none; stroke: #000000; stroke-width: 0.8; stroke-linejoin: miter; stroke-linecap: square"/>
   </g>
   <g id="text_13">
    <!-- Captioning Metrics by Model (400-item Test Split) -->
    <g transform="translate(159.025562 17.229937) scale(0.132 -0.132)">
     <defs>
      <path id="DejaVuSans-70" d="M 1159 525 
L 1159 -1331 
L 581 -1331 
L 581 3500 
L 1159 3500 
L 1159 2969 
Q 1341 3281 1617 3432 
Q 1894 3584 2278 3584 
Q 2916 3584 3314 3078 
Q 3713 2572 3713 1747 
Q 3713 922 3314 415 
Q 2916 -91 2278 -91 
Q 1894 -91 1617 61 
Q 1341 213 1159 525 
z
M 3116 1747 
Q 3116 2381 2855 2742 
Q 2594 3103 2138 3103 
Q 1681 3103 1420 2742 
Q 1159 2381 1159 1747 
Q 1159 1113 1420 752 
Q 1681 391 2138 391 
Q 2594 391 2855 752 
Q 3116 1113 3116 1747 
z
" transform="scale(0.015625)"/>
      <path id="DejaVuSans-67" d="M 2906 1791 
Q 2906 2416 2648 2759 
Q 2391 3103 1925 3103 
Q 1463 3103 1205 2759 
Q 947 2416 947 1791 
Q 947 1169 1205 825 
Q 1463 481 1925 481 
Q 2391 481 2648 825 
Q 2906 1169 2906 1791 
z
M 3481 434 
Q 3481 -459 3084 -895 
Q 2688 -1331 1869 -1331 
Q 1566 -1331 1297 -1286 
Q 1028 -1241 775 -1147 
L 775 -588 
Q 1028 -725 1275 -790 
Q 1522 -856 1778 -856 
Q 2344 -856 2625 -561 
Q 2906 -266 2906 331 
L 2906 616 
Q 2728 306 2450 153 
Q 2172 0 1784 0 
Q 1141 0 747 490 
Q 353 981 353 1791 
Q 353 2603 747 3093 
Q 1141 3584 1784 3584 
Q 2172 3584 2450 3431 
Q 2728 3278 2906 2969 
L 2906 3500 
L 3481 3500 
L 3481 434 
z
" transform="scale(0.015625)"/>
      <path id="DejaVuSans-62" d="M 3116 1747 
Q 3116 2381 2855 2742 
Q 2594 3103 2138 3103 
Q 1681 3103 1420 2742 
Q 1159 2381 1159 1747 
Q 1159 1113 1420 752 
Q 1681 391 2138 391 
Q 2594 391 2855 752 
Q 3116 1113 3116 1747 
z
M 1159 2969 
Q 1341 3281 1617 3432 
Q 1894 3584 2278 3584 
Q 2916 3584 3314 3078 
Q 3713 2572 3713 1747 
Q 3713 922 3314 415 
Q 2916 -91 2278 -91 
Q 1894 -91 1617 61 
Q 1341 213 1159 525 
L 1159 0 
L 581 0 
L 581 4863 
L 1159 4863 
L 1159 2969 
z
" transform="scale(0.015625)"/>
      <path id="DejaVuSans-79" d="M 2059 -325 
Q 1816 -950 1584 -1140 
Q 1353 -1331 966 -1331 
L 506 -1331 
L 506 -850 
L 844 -850 
Q 1081 -850 1212 -737 
Q 1344 -625 1503 -206 
L 1606 56 
L 191 3500 
L 800 3500 
L 1894 763 
L 2988 3500 
L 3597 3500 
L 2059 -325 
z
" transform="scale(0.015625)"/>
      <path id="DejaVuSans-64" d="M 2906 2969 
L 2906 4863 
L 3481 4863 
L 3481 0 
L 2906 0 
L 2906 525 
Q 2725 213 2448 61 
Q 2172 -91 1784 -91 
Q 1150 -91 751 415 
Q 353 922 353 1747 
Q 353 2572 751 3078 
Q 1150 3584 1784 3584 
Q 2172 3584 2448 3432 
Q 2725 3281 2906 2969 
z
M 947 1747 
Q 947 1113 1208 752 
Q 1469 391 1925 391 
Q 2381 391 2643 752 
Q 2906 1113 2906 1747 
Q 2906 2381 2643 2742 
Q 2381 3103 1925 3103 
Q 1469 3103 1208 2742 
Q 947 2381 947 1747 
z
" transform="scale(0.015625)"/>
      <path id="DejaVuSans-34" d="M 2419 4116 
L 825 1625 
L 2419 1625 
L 2419 4116 
z
M 2253 4666 
L 3047 4666 
L 3047 1625 
L 3713 1625 
L 3713 1100 
L 3047 1100 
L 3047 0 
L 2419 0 
L 2419 1100 
L 313 1100 
L 313 1709 
L 2253 4666 
z
" transform="scale(0.015625)"/>
      <path id="DejaVuSans-6d" d="M 3328 2828 
Q 3544 3216 3844 3400 
Q 4144 3584 4550 3584 
Q 5097 3584 5394 3201 
Q 5691 2819 5691 2113 
L 5691 0 
L 5113 0 
L 5113 2094 
Q 5113 2597 4934 2840 
Q 4756 3084 4391 3084 
Q 3944 3084 3684 2787 
Q 3425 2491 3425 1978 
L 3425 0 
L 2847 0 
L 2847 2094 
Q 2847 2600 2669 2842 
Q 2491 3084 2119 3084 
Q 1678 3084 1418 2786 
Q 1159 2488 1159 1978 
L 1159 0 
L 581 0 
L 581 3500 
L 1159 3500 
L 1159 2956 
Q 1356 3278 1631 3431 
Q 1906 3584 2284 3584 
Q 2666 3584 2933 3390 
Q 3200 3197 3328 2828 
z
" transform="scale(0.015625)"/>
     </defs>
     <use xlink:href="#DejaVuSans-43"/>
     <use xlink:href="#DejaVuSans-61" x="69.824219"/>
     <use xlink:href="#DejaVuSans-70" x="131.103516"/>
     <use xlink:href="#DejaVuSans-74" x="194.580078"/>
     <use xlink:href="#DejaVuSans-69" x="233.789062"/>
     <use xlink:href="#DejaVuSans-6f" x="261.572266"/>
     <use xlink:href="#DejaVuSans-6e" x="322.753906"/>
     <use xlink:href="#DejaVuSans-69" x="386.132812"/>
     <use xlink:href="#DejaVuSans-6e" x="413.916016"/>
     <use xlink:href="#DejaVuSans-67" x="477.294922"/>
     <use xlink:href="#DejaVuSans-20" x="540.771484"/>
     <use xlink:href="#DejaVuSans-4d" x="572.558594"/>
     <use xlink:href="#DejaVuSans-65" x="658.837891"/>
     <use xlink:href="#DejaVuSans-74" x="720.361328"/>
     <use xlink:href="#DejaVuSans-72" x="759.570312"/>
     <use xlink:href="#DejaVuSans-69" x="800.683594"/>
     <use xlink:href="#DejaVuSans-63" x="828.466797"/>
     <use xlink:href="#DejaVuSans-73" x="883.447266"/>
     <use xlink:href="#DejaVuSans-20" x="935.546875"/>
     <use xlink:href="#DejaVuSans-62" x="967.333984"/>
     <use xlink:href="#DejaVuSans-79" x="1030.810547"/>
     <use xlink:href="#DejaVuSans-20" x="1089.990234"/>
     <use xlink:href="#DejaVuSans-4d" x="1121.777344"/>
     <use xlink:href="#DejaVuSans-6f" x="1208.056641"/>
     <use xlink:href="#DejaVuSans-64" x="1269.238281"/>
     <use xlink:href="#DejaVuSans-65" x="1332.714844"/>
     <use xlink:href="#DejaVuSans-6c" x="1394.238281"/>
     <use xlink:href="#DejaVuSans-20" x="1422.021484"/>
     <use xlink:href="#DejaVuSans-28" x="1453.808594"/>
     <use xlink:href="#DejaVuSans-34" x="1492.822266"/>
     <use xlink:href="#DejaVuSans-30" x="1556.445312"/>
     <use xlink:href="#DejaVuSans-30" x="1620.068359"/>
     <use xlink:href="#DejaVuSans-2d" x="1683.691406"/>
     <use xlink:href="#DejaVuSans-69" x="1719.775391"/>
     <use xlink:href="#DejaVuSans-74" x="1747.558594"/>
     <use xlink:href="#DejaVuSans-65" x="1786.767578"/>
     <use xlink:href="#DejaVuSans-6d" x="1848.291016"/>
     <use xlink:href="#DejaVuSans-20" x="1945.703125"/>
     <use xlink:href="#DejaVuSans-54" x="1977.490234"/>
     <use xlink:href="#DejaVuSans-65" x="2021.574219"/>
     <use xlink:href="#DejaVuSans-73" x="2083.097656"/>
     <use xlink:href="#DejaVuSans-74" x="2135.197266"/>
     <use xlink:href="#DejaVuSans-20" x="2174.40625"/>
     <use xlink:href="#DejaVuSans-53" x="2206.193359"/>
     <use xlink:href="#DejaVuSans-70" x="2269.669922"/>
     <use xlink:href="#DejaVuSans-6c" x="2333.146484"/>
     <use xlink:href="#DejaVuSans-69" x="2360.929688"/>
     <use xlink:href="#DejaVuSans-74" x="2388.712891"/>
     <use xlink:href="#DejaVuSans-29" x="2427.921875"/>
    </g>
   </g>
   <g id="legend_1">
    <g id="patch_23">
     <path d="M 446.341563 96.613687 
L 593.143437 96.613687 
Q 595.343437 96.613687 595.343437 94.413687 
L 595.343437 30.929937 
Q 595.343437 28.729937 593.143437 28.729937 
L 446.341563 28.729937 
Q 444.141563 28.729937 444.141563 30.929937 
L 444.141563 94.413687 
Q 444.141563 96.613687 446.341563 96.613687 
z
" style="fill: #ffffff; opacity: 0.8; stroke: #cccccc; stroke-linejoin: miter"/>
    </g>
    <g id="patch_24">
     <path d="M 448.541562 41.488219 
L 470.541562 41.488219 
L 470.541562 33.788219 
L 448.541562 33.788219 
z
" style="fill: #1b9e77"/>
    </g>
    <g id="text_14">
     <!-- SPE+Qwen2-7B -->
     <g transform="translate(479.341563 41.488219) scale(0.11 -0.11)">
      <defs>
       <path id="DejaVuSans-2b" d="M 2944 4013 
L 2944 2272 
L 4684 2272 
L 4684 1741 
L 2944 1741 
L 2944 0 
L 2419 0 
L 2419 1741 
L 678 1741 
L 678 2272 
L 2419 2272 
L 2419 4013 
L 2944 4013 
z
" transform="scale(0.015625)"/>
       <path id="DejaVuSans-51" d="M 2522 4238 
Q 1834 4238 1429 3725 
Q 1025 3213 1025 2328 
Q 1025 1447 1429 934 
Q 1834 422 2522 422 
Q 3209 422 3611 934 
Q 4013 1447 4013 2328 
Q 4013 3213 3611 3725 
Q 3209 4238 2522 4238 
z
M 3406 84 
L 4238 -825 
L 3475 -825 
L 2784 -78 
Q 2681 -84 2626 -87 
Q 2572 -91 2522 -91 
Q 1538 -91 948 567 
Q 359 1225 359 2328 
Q 359 3434 948 4092 
Q 1538 4750 2522 4750 
Q 3503 4750 4090 4092 
Q 4678 3434 4678 2328 
Q 4678 1516 4351 937 
Q 4025 359 3406 84 
z
" transform="scale(0.015625)"/>
       <path id="DejaVuSans-77" d="M 269 3500 
L 844 3500 
L 1563 769 
L 2278 3500 
L 2956 3500 
L 3675 769 
L 4391 3500 
L 4966 3500 
L 4050 0 
L 3372 0 
L 2619 2869 
L 1863 0 
L 1184 0 
L 269 3500 
z
" transform="scale(0.015625)"/>
       <path id="DejaVuSans-37" d="M 525 4666 
L 3525 4666 
L 3525 4397 
L 1831 0 
L 1172 0 
L 2766 4134 
L 525 4134 
L 525 4666 
z
" transform="scale(0.015625)"/>
      </defs>
      <use xlink:href="#DejaVuSans-53"/>
      <use xlink:href="#DejaVuSans-50" x="63.476562"/>
      <use xlink:href="#DejaVuSans-45" x="123.779297"/>
      <use xlink:href="#DejaVuSans-2b" x="186.962891"/>
      <use xlink:href="#DejaVuSans-51" x="270.751953"/>
      <use xlink:href="#DejaVuSans-77" x="349.462891"/>
      <use xlink:href="#DejaVuSans-65" x="431.25"/>
      <use xlink:href="#DejaVuSans-6e" x="492.773438"/>
      <use xlink:href="#DejaVuSans-32" x="556.152344"/>
      <use xlink:href="#DejaVuSans-2d" x="619.775391"/>
      <use xlink:href="#DejaVuSans-37" x="655.859375"/>
      <use xlink:href="#DejaVuSans-42" x="719.482422"/>
     </g>
    </g>
    <g id="patch_25">
     <path d="M 448.541562 57.634156 
L 470.541562 57.634156 
L 470.541562 49.934156 
L 448.541562 49.934156 
z
" style="fill: #d95f02"/>
    </g>
    <g id="text_15">
     <!-- LoRA Qwen2-7B -->
     <g transform="translate(479.341563 57.634156) scale(0.11 -0.11)">
      <defs>
       <path id="DejaVuSans-41" d="M 2188 4044 
L 1331 1722 
L 3047 1722 
L 2188 4044 
z
M 1831 4666 
L 2547 4666 
L 4325 0 
L 3669 0 
L 3244 1197 
L 1141 1197 
L 716 0 
L 50 0 
L 1831 4666 
z
" transform="scale(0.015625)"/>
      </defs>
      <use xlink:href="#DejaVuSans-4c"/>
      <use xlink:href="#DejaVuSans-6f" x="53.962891"/>
      <use xlink:href="#DejaVuSans-52" x="115.144531"/>
      <use xlink:href="#DejaVuSans-41" x="180.626953"/>
      <use xlink:href="#DejaVuSans-20" x="249.035156"/>
      <use xlink:href="#DejaVuSans-51" x="280.822266"/>
      <use xlink:href="#DejaVuSans-77" x="359.533203"/>
      <use xlink:href="#DejaVuSans-65" x="441.320312"/>
      <use xlink:href="#DejaVuSans-6e" x="502.84375"/>
      <use xlink:href="#DejaVuSans-32" x="566.222656"/>
      <use xlink:href="#DejaVuSans-2d" x="629.845703"/>
      <use xlink:href="#DejaVuSans-37" x="665.929688"/>
      <use xlink:href="#DejaVuSans-42" x="729.552734"/>
     </g>
    </g>
    <g id="patch_26">
     <path d="M 448.541562 73.780094 
L 470.541562 73.780094 
L 470.541562 66.080094 
L 448.541562 66.080094 
z
" style="fill: #7570b3"/>
    </g>
    <g id="text_16">
     <!-- BLIP-2 zero-shot -->
     <g transform="translate(479.341563 73.780094) scale(0.11 -0.11)">
      <defs>
       <path id="DejaVuSans-7a" d="M 353 3500 
L 3084 3500 
L 3084 2975 
L 922 459 
L 3084 459 
L 3084 0 
L 275 0 
L 275 525 
L 2438 3041 
L 353 3041 
L 353 3500 
z
" transform="scale(0.015625)"/>
       <path id="DejaVuSans-68" d="M 3513 2113 
L 3513 0 
L 2938 0 
L 2938 2094 
Q 2938 2591 2744 2837 
Q 2550 3084 2163 3084 
Q 1697 3084 1428 2787 
Q 1159 2491 1159 1978 
L 1159 0 
L 581 0 
L 581 4863 
L 1159 4863 
L 1159 2956 
Q 1366 3272 1645 3428 
Q 1925 3584 2291 3584 
Q 2894 3584 3203 3211 
Q 3513 2838 3513 2113 
z
" transform="scale(0.015625)"/>
      </defs>
      <use xlink:href="#DejaVuSans-42"/>
      <use xlink:href="#DejaVuSans-4c" x="68.603516"/>
      <use xlink:href="#DejaVuSans-49" x="124.316406"/>
      <use xlink:href="#DejaVuSans-50" x="153.808594"/>
      <use xlink:href="#DejaVuSans-2d" x="211.861328"/>
      <use xlink:href="#DejaVuSans-32" x="247.945312"/>
      <use xlink:href="#DejaVuSans-20" x="311.568359"/>
      <use xlink:href="#DejaVuSans-7a" x="343.355469"/>
      <use xlink:href="#DejaVuSans-65" x="395.845703"/>
      <use xlink:href="#DejaVuSans-72" x="457.369141"/>
      <use xlink:href="#DejaVuSans-6f" x="496.232422"/>
      <use xlink:href="#DejaVuSans-2d" x="559.289062"/>
      <use xlink:href="#DejaVuSans-73" x="595.373047"/>
      <use xlink:href="#DejaVuSans-68" x="647.472656"/>
      <use xlink:href="#DejaVuSans-6f" x="710.851562"/>
      <use xlink:href="#DejaVuSans-74" x="772.033203"/>
     </g>
    </g>
    <g id="patch_27">
     <path d="M 448.541562 89.926031 
L 470.541562 89.926031 
L 470.541562 82.226031 
L 448.541562 82.226031 
z
" style="fill: #e7298a"/>
    </g>
    <g id="text_17">
     <!-- Llama-9B LoRA 4-bit -->
     <g transform="translate(479.341563 89.926031) scale(0.11 -0.11)">
      <defs>
       <path id="DejaVuSans-39" d="M 703 97 
L 703 672 
Q 941 559 1184 500 
Q 1428 441 1663 441 
Q 2288 441 2617 861 
Q 2947 1281 2994 2138 
Q 2813 1869 2534 1725 
Q 2256 1581 1919 1581 
Q 1219 1581 811 2004 
Q 403 2428 403 3163 
Q 403 3881 828 4315 
Q 1253 4750 1959 4750 
Q 2769 4750 3195 4129 
Q 3622 3509 3622 2328 
Q 3622 1225 3098 567 
Q 2575 -91 1691 -91 
Q 1453 -91 1209 -44 
Q 966 3 703 97 
z
M 1959 2075 
Q 2384 2075 2632 2365 
Q 2881 2656 2881 3163 
Q 2881 3666 2632 3958 
Q 2384 4250 1959 4250 
Q 1534 4250 1286 3958 
Q 1038 3666 1038 3163 
Q 1038 2656 1286 2365 
Q 1534 2075 1959 2075 
z
" transform="scale(0.015625)"/>
      </defs>
      <use xlink:href="#DejaVuSans-4c"/>
      <use xlink:href="#DejaVuSans-6c" x="55.712891"/>
      <use xlink:href="#DejaVuSans-61" x="83.496094"/>
      <use xlink:href="#DejaVuSans-6d" x="144.775391"/>
      <use xlink:href="#DejaVuSans-61" x="242.1875"/>
      <use xlink:href="#DejaVuSans-2d" x="303.466797"/>
      <use xlink:href="#DejaVuSans-39" x="339.550781"/>
      <use xlink:href="#DejaVuSans-42" x="403.173828"/>
      <use xlink:href="#DejaVuSans-20" x="471.777344"/>
      <use xlink:href="#DejaVuSans-4c" x="503.564453"/>
      <use xlink:href="#DejaVuSans-6f" x="557.527344"/>
      <use xlink:href="#DejaVuSans-52" x="618.708984"/>
      <use xlink:href="#DejaVuSans-41" x="684.191406"/>
      <use xlink:href="#DejaVuSans-20" x="752.599609"/>
      <use xlink:href="#DejaVuSans-34" x="784.386719"/>
      <use xlink:href="#DejaVuSans-2d" x="848.009766"/>
      <use xlink:href="#DejaVuSans-62" x="884.09375"/>
      <use xlink:href="#DejaVuSans-69" x="947.570312"/>
      <use xlink:href="#DejaVuSans-74" x="975.353516"/>
     </g>
    </g>
   </g>
  </g>
  <g id="text_18">
   <!-- Raw scores reported; refer to Table "Performance comparison on the 400-item test split". -->
   <g transform="translate(89.892656 399.069937) scale(0.1 -0.1)">
    <defs>
     <path id="DejaVuSans-3b" d="M 750 3309 
L 1409 3309 
L 1409 2516 
L 750 2516 
L 750 3309 
z
M 750 794 
L 1409 794 
L 1409 256 
L 897 -744 
L 494 -744 
L 750 256 
L 750 794 
z
" transform="scale(0.015625)"/>
     <path id="DejaVuSans-66" d="M 2375 4863 
L 2375 4384 
L 1825 4384 
Q 1516 4384 1395 4259 
Q 1275 4134 1275 3809 
L 1275 3500 
L 2222 3500 
L 2222 3053 
L 1275 3053 
L 1275 0 
L 697 0 
L 697 3053 
L 147 3053 
L 147 3500 
L 697 3500 
L 697 3744 
Q 697 4328 969 4595 
Q 1241 4863 1831 4863 
L 2375 4863 
z
" transform="scale(0.015625)"/>
     <path id="DejaVuSans-22" d="M 1147 4666 
L 1147 2931 
L 616 2931 
L 616 4666 
L 1147 4666 
z
M 2328 4666 
L 2328 2931 
L 1797 2931 
L 1797 4666 
L 2328 4666 
z
" transform="scale(0.015625)"/>
     <path id="DejaVuSans-2e" d="M 684 794 
L 1344 794 
L 1344 0 
L 684 0 
L 684 794 
z
" transform="scale(0.015625)"/>
    </defs>
    <use xlink:href="#DejaVuSans-52"/>
    <use xlink:href="#DejaVuSans-61" x="67.232422"/>
    <use xlink:href="#DejaVuSans-77" x="128.511719"/>
    <use xlink:href="#DejaVuSans-20" x="210.298828"/>
    <use xlink:href="#DejaVuSans-73" x="242.085938"/>
    <use xlink:href="#DejaVuSans-63" x="294.185547"/>
    <use xlink:href="#DejaVuSans-6f" x="349.166016"/>
    <use xlink:href="#DejaVuSans-72" x="410.347656"/>
    <use xlink:href="#DejaVuSans-65" x="449.210938"/>
    <use xlink:href="#DejaVuSans-73" x="510.734375"/>
    <use xlink:href="#DejaVuSans-20" x="562.833984"/>
    <use xlink:href="#DejaVuSans-72" x="594.621094"/>
    <use xlink:href="#DejaVuSans-65" x="633.484375"/>
    <use xlink:href="#DejaVuSans-70" x="695.007812"/>
    <use xlink:href="#DejaVuSans-6f" x="758.484375"/>
    <use xlink:href="#DejaVuSans-72" x="819.666016"/>
    <use xlink:href="#DejaVuSans-74" x="860.779297"/>
    <use xlink:href="#DejaVuSans-65" x="899.988281"/>
    <use xlink:href="#DejaVuSans-64" x="961.511719"/>
    <use xlink:href="#DejaVuSans-3b" x="1024.988281"/>
    <use xlink:href="#DejaVuSans-20" x="1058.679688"/>
    <use xlink:href="#DejaVuSans-72" x="1090.466797"/>
    <use xlink:href="#DejaVuSans-65" x="1129.330078"/>
    <use xlink:href="#DejaVuSans-66" x="1190.853516"/>
    <use xlink:href="#DejaVuSans-65" x="1226.058594"/>
    <use xlink:href="#DejaVuSans-72" x="1287.582031"/>
    <use xlink:href="#DejaVuSans-20" x="1328.695312"/>
    <use xlink:href="#DejaVuSans-74" x="1360.482422"/>
    <use xlink:href="#DejaVuSans-6f" x="1399.691406"/>
    <use xlink:href="#DejaVuSans-20" x="1460.873047"/>
    <use xlink:href="#DejaVuSans-54" x="1492.660156"/>
    <use xlink:href="#DejaVuSans-61" x="1537.244141"/>
    <use xlink:href="#DejaVuSans-62" x="1598.523438"/>
    <use xlink:href="#DejaVuSans-6c" x="1662"/>
    <use xlink:href="#DejaVuSans-65" x="1689.783203"/>
    <use xlink:href="#DejaVuSans-20" x="1751.306641"/>
    <use xlink:href="#DejaVuSans-22" x="1783.09375"/>
    <use xlink:href="#DejaVuSans-50" x="1829.089844"/>
    <use xlink:href="#DejaVuSans-65" x="1885.767578"/>
    <use xlink:href="#DejaVuSans-72" x="1947.291016"/>
    <use xlink:href="#DejaVuSans-66" x="1988.404297"/>
    <use xlink:href="#DejaVuSans-6f" x="2023.609375"/>
    <use xlink:href="#DejaVuSans-72" x="2084.791016"/>
    <use xlink:href="#DejaVuSans-6d" x="2124.154297"/>
    <use xlink:href="#DejaVuSans-61" x="2221.566406"/>
    <use xlink:href="#DejaVuSans-6e" x="2282.845703"/>
    <use xlink:href="#DejaVuSans-63" x="2346.224609"/>
    <use xlink:href="#DejaVuSans-65" x="2401.205078"/>
    <use xlink:href="#DejaVuSans-20" x="2462.728516"/>
    <use xlink:href="#DejaVuSans-63" x="2494.515625"/>
    <use xlink:href="#DejaVuSans-6f" x="2549.496094"/>
    <use xlink:href="#DejaVuSans-6d" x="2610.677734"/>
    <use xlink:href="#DejaVuSans-70" x="2708.089844"/>
    <use xlink:href="#DejaVuSans-61" x="2771.566406"/>
    <use xlink:href="#DejaVuSans-72" x="2832.845703"/>
    <use xlink:href="#DejaVuSans-69" x="2873.958984"/>
    <use xlink:href="#DejaVuSans-73" x="2901.742188"/>
    <use xlink:href="#DejaVuSans-6f" x="2953.841797"/>
    <use xlink:href="#DejaVuSans-6e" x="3015.023438"/>
    <use xlink:href="#DejaVuSans-20" x="3078.402344"/>
    <use xlink:href="#DejaVuSans-6f" x="3110.189453"/>
    <use xlink:href="#DejaVuSans-6e" x="3171.371094"/>
    <use xlink:href="#DejaVuSans-20" x="3234.75"/>
    <use xlink:href="#DejaVuSans-74" x="3266.537109"/>
    <use xlink:href="#DejaVuSans-68" x="3305.746094"/>
    <use xlink:href="#DejaVuSans-65" x="3369.125"/>
    <use xlink:href="#DejaVuSans-20" x="3430.648438"/>
    <use xlink:href="#DejaVuSans-34" x="3462.435547"/>
    <use xlink:href="#DejaVuSans-30" x="3526.058594"/>
    <use xlink:href="#DejaVuSans-30" x="3589.681641"/>
    <use xlink:href="#DejaVuSans-2d" x="3653.304688"/>
    <use xlink:href="#DejaVuSans-69" x="3689.388672"/>
    <use xlink:href="#DejaVuSans-74" x="3717.171875"/>
    <use xlink:href="#DejaVuSans-65" x="3756.380859"/>
    <use xlink:href="#DejaVuSans-6d" x="3817.904297"/>
    <use xlink:href="#DejaVuSans-20" x="3915.316406"/>
    <use xlink:href="#DejaVuSans-74" x="3947.103516"/>
    <use xlink:href="#DejaVuSans-65" x="3986.3125"/>
    <use xlink:href="#DejaVuSans-73" x="4047.835938"/>
    <use xlink:href="#DejaVuSans-74" x="4099.935547"/>
    <use xlink:href="#DejaVuSans-20" x="4139.144531"/>
    <use xlink:href="#DejaVuSans-73" x="4170.931641"/>
    <use xlink:href="#DejaVuSans-70" x="4223.03125"/>
    <use xlink:href="#DejaVuSans-6c" x="4286.507812"/>
    <use xlink:href="#DejaVuSans-69" x="4314.291016"/>
    <use xlink:href="#DejaVuSans-74" x="4342.074219"/>
    <use xlink:href="#DejaVuSans-22" x="4381.283203"/>
    <use xlink:href="#DejaVuSans-2e" x="4427.279297"/>
   </g>
  </g>
 </g>
 <defs>
  <clipPath id="p74bbe26e97">
   <rect x="42.843438" y="23.229937" width="558" height="332.64"/>
  </clipPath>
 </defs>
</svg>
