<?xml version="1.0" encoding="utf-8"?>
<svg viewBox="0 0 512 512" version="1.1" xmlns="http://www.w3.org/2000/svg">
<path style="fill:rgb(0,0,0);stroke:none;stroke-width:1;opacity:1" d="M277,361 L277,405 L384,405 L384,448 L128,448 L128,405 L235,405 L235,361 C149,351,85,278,85,192 L85,64 L427,64 L427,192 C427,278,363,351,277,361 M128,107 L128,192 C128,263,185,320,256,320 C327,320,384,263,384,192 L384,107 L128,107 M21,107 L64,107 L64,192 L21,192 L21,107 M448,107 L491,107 L491,192 L448,192 L448,107Z" />
</svg>
