<?xml version="1.0" encoding="utf-8"?>
<svg xmlns="http://www.w3.org/2000/svg" viewBox="0 0 512 512" width="512" height="512">
 style="fill="#000000";stroke="none";stroke-width="1";opacity="1"" d="M440,202 C438,198,434,196,430,196 L256,196 L256,11 C256,6,252,2,248,0 C243,-1,238,1,235,6 L72,311 C70,314,70,318,72,321 C74,325,78,327,82,327 L234,327 L234,501 C234,506,237,510,242,511 C243,512,244,512,245,512 C249,512,252,510,254,507 L439,213 C441,209,442,205,440,202 M256,463 L256,316 C256,310,251,305,245,305 L100,305 L234,54 L234,207 C234,213,239,218,245,218 L410,218 L256,463Z" />
</svg>
</svg>
