<?xml version="1.0" encoding="utf-8"?>
<svg viewBox="0 0 512 512" version="1.1" xmlns="http://www.w3.org/2000/svg">
<path style="fill:currentColor;stroke:None;stroke-width:1;opacity:1" d="d=M384,128 L85,128 L85,171 L427,171 L427,128 L384,128 M85,85 L85,43 A43,43,0,0,1,128,0 L384,0 A43,43,0,0,1,427,43 L427,85 A43,43,0,0,1,469,128 L469,171 A43,43,0,0,1,512,213 L512,469 A43,43,0,0,1,469,512 L43,512 A43,43,0,0,1,0,469 L0,213 A43,43,0,0,1,43,171 L43,128 A43,43,0,0,1,85,85 M128,85 L384,85 L384,43 L128,43 L128,85 M427,213 L43,213 L43,469 L469,469 L469,213 L427,213Z" />
</svg>