<?xml version="1.0" encoding="utf-8"?>
<svg viewBox="0 0 512 512" version="1.1" xmlns="http://www.w3.org/2000/svg">
<path style="fill:115,126,144;stroke:None;stroke-width:1;opacity:1" d="d=M76,493 L77,493 L458,493 C471,493,482,481,482,466 L482,37 C482,22,471,10,458,10 L33,10 C20,10,10,22,10,37 L10,466 C10,481,20,493,33,493 L76,493 M435,64 L435,332 L293,171 L57,439 L57,64 L435,64 M435,408 L293,247 L124,439 L435,439 L435,408 M104,171 C104,201,125,225,151,225 C177,225,199,201,199,171 C199,141,177,117,151,117 C125,117,104,141,104,171Z" />
</svg>