<?xml version="1.0" encoding="utf-8"?>
<svg viewBox="0 0 512 512" version="1.1" xmlns="http://www.w3.org/2000/svg">
<path style="fill:0,0,0;stroke:None;stroke-width:1;opacity:1" d="d=M448,64 L316,64 C307,39,284,21,256,21 C228,21,205,39,196,64 L64,64 L64,448 L448,448 L448,64 M256,64 C268,64,277,74,277,85 C277,97,268,107,256,107 C244,107,235,97,235,85 C235,74,244,64,256,64 M340,302 L319,339 L277,315 L277,363 L235,363 L235,315 L193,339 L172,302 L214,277 L172,252 L193,215 L235,240 L235,192 L277,192 L277,240 L319,215 L340,252 L298,277 L340,302Z" />
</svg>