<?xml version="1.0" encoding="utf-8"?>
<svg viewBox="0 0 512 512" version="1.1" xmlns="http://www.w3.org/2000/svg">
<path style="fill:none;stroke:None;stroke-width:1;opacity:1" d="d=M0,0 L512,0 L512,512 L0,512 L0,0 Z" />
<path style="fill:0,0,0;stroke:None;stroke-width:1;opacity:1" d="d=M288,352 L448,352 L448,384 L288,384 L288,352 M128,96 L128,192 L0,96 L0,416 L128,320 L128,416 L232,416 C252,472,305,512,368,512 C431,512,484,472,504,416 L512,416 L512,96 L128,96 M368,478 C307,478,258,429,258,368 C258,307,307,258,368,258 C429,258,478,307,478,368 C478,429,429,478,368,478Z" />
</svg>