<?xml version="1.0" encoding="utf-8"?>
<svg viewBox="0 0 512 512" version="1.1" xmlns="http://www.w3.org/2000/svg">
<path style="fill:225,0,0;stroke:0,0,0;stroke-width:5.72;opacity:1" d="d=M256,7 C120,7,10,88,10,188 C10,203,12,218,18,233 C74,192,160,166,256,166 C352,166,438,192,494,233 C500,218,502,203,502,188 C502,88,392,7,256,7 Z" />
<path style="fill:255,255,255;stroke:0,0,0;stroke-width:5.72;opacity:1" d="d=M256,198 C163,198,82,228,38,272 C75,322,142,358,222,366 L222,505 L290,505 L290,366 C370,358,437,322,474,272 C430,228,349,198,256,198Z" />
</svg>