<?xml version="1.0" encoding="utf-8"?>
<svg viewBox="0 0 512 512" version="1.1" xmlns="http://www.w3.org/2000/svg">
<path style="fill:currentColor;stroke:None;stroke-width:1;opacity:1" d="d=M256,53 C368,53,459,144,459,256 C459,368,368,459,256,459 C144,459,53,368,53,256 C53,144,144,53,256,53 M256,80 C159,80,80,159,80,256 C80,353,159,432,256,432 C353,432,432,353,432,256 C432,159,353,80,256,80 M243,128 C250,128,255,133,256,140 L256,141 L256,256 L328,256 C335,256,341,262,341,269 C341,276,336,282,329,283 L328,283 L243,283 C236,283,230,277,229,271 L229,269 L229,141 C229,134,235,128,243,128Z" />
</svg>