<?xml version="1.0" encoding="utf-8"?>
<svg viewBox="0 0 512 512" version="1.1" xmlns="http://www.w3.org/2000/svg">
<path style="fill:0,0,0;stroke:None;stroke-width:1;opacity:0" d="d=M0,0 L512,0 L512,512 L0,512 L0,0 Z" />
<path style="fill:0,0,0;stroke:None;stroke-width:1;opacity:1" d="d=M405,235 L152,235 L230,142 A21,21,0,1,0,197,114 L90,242 A25,25,0,0,0,88,246 C88,247,88,247,87,248 A21,21,0,0,0,85,256 A21,21,0,0,0,87,264 C87,265,87,265,88,266 A25,25,0,0,0,90,270 L197,398 A21,21,0,0,0,213,405 A21,21,0,0,0,227,400 A21,21,0,0,0,230,370 L152,277 L405,277 A21,21,0,0,0,405,235Z" />
</svg>