<?xml version="1.0" encoding="utf-8"?>
<svg viewBox="0 0 512 512" version="1.1" xmlns="http://www.w3.org/2000/svg">
<path style="fill:0,0,0;stroke:None;stroke-width:1;opacity:1" d="d=M102,10 L410,10 A92,92,0,0,1,502,102 L502,410 A92,92,0,0,1,410,502 L102,502 A92,92,0,0,1,10,410 L10,102 A92,92,0,0,1,102,10 Z" />
<path style="fill:153,204,0;stroke:255,255,255;stroke-width:20;opacity:1" d="d=M102,36 L410,36 A67,67,0,0,1,476,102 L476,410 A67,67,0,0,1,410,476 L102,476 A67,67,0,0,1,36,410 L36,102 A67,67,0,0,1,102,36Z" />
</svg>