<?xml version="1.0" encoding="utf-8"?>
<svg viewBox="0 0 512 512" version="1.1" xmlns="http://www.w3.org/2000/svg">
<path style="fill:0,0,0;stroke:None;stroke-width:1;opacity:1" d="d=M405,0 L107,0 C101,0,96,5,96,11 L96,501 C96,506,99,510,103,511 C107,513,111,512,114,509 L256,367 L398,509 C400,511,403,512,405,512 C407,512,408,512,409,511 C413,510,416,506,416,501 L416,11 C416,5,411,0,405,0 M395,476 L264,344 C261,342,259,341,256,341 C253,341,251,342,248,344 L117,476 L117,378 L256,239 L395,378 L395,476Z" />
</svg>