<?xml version="1.0" encoding="utf-8"?>
<svg viewBox="0 0 512 512" version="1.1" xmlns="http://www.w3.org/2000/svg">
<path style="fill:0,0,0;stroke:None;stroke-width:1;opacity:1" d="d=M263,484 C254,482,233,480,216,479 C155,478,128,451,116,381 C100,290,101,125,119,84 C140,33,167,22,261,26 C383,32,411,38,394,59 C388,66,379,66,333,63 C264,58,261,58,212,62 C190,64,168,69,163,72 C145,83,139,128,139,242 C139,347,141,358,160,415 C169,440,173,442,219,448 C287,458,358,460,371,453 C385,445,397,448,404,462 C414,481,404,484,340,486 C306,487,271,486,263,484Z" />
</svg>