<?xml version="1.0" encoding="utf-8"?>
<svg viewBox="0 0 512 512" version="1.1" xmlns="http://www.w3.org/2000/svg">
<path style="fill:0,0,0;stroke:None;stroke-width:1;opacity:1" d="d=M118,66 C112,66,105,68,99,70 L99,321 C99,321,199,317,225,415 L225,151 C205,110,161,64,118,66 M225,415 C160,365,68,352,68,352 L68,114 L37,101 L37,383 L225,446 L287,446 L475,383 L475,101 L444,114 L444,365 L287,415 C266,407,242,408,225,415 M413,70 C350,67,278,104,240,136 L240,402 C275,373,338,335,413,327 L413,70Z" />
</svg>