<?xml version="1.0" encoding="utf-8"?>
<svg viewBox="0 0 512 512" version="1.1" xmlns="http://www.w3.org/2000/svg">
<path style="fill:0,0,0;stroke:None;stroke-width:1;opacity:1" d="d=M217,0 L217,67 C142,82,82,142,67,217 L0,217 L0,295 L67,295 C82,370,142,430,217,445 L217,512 L295,512 L295,445 C370,430,430,370,445,295 L512,295 L512,217 L445,217 C430,142,370,82,295,67 L295,0 L217,0 M217,118 L217,193 L295,193 L295,118 C343,131,381,169,394,217 L319,217 L319,295 L394,295 C381,343,343,381,295,394 L295,319 L217,319 L217,394 C169,381,131,343,118,295 L193,295 L193,217 L118,217 C131,169,169,131,217,118Z" />
</svg>