<?xml version="1.0" encoding="utf-8"?>
<svg viewBox="0 0 512 512" version="1.1" xmlns="http://www.w3.org/2000/svg">
<path style="fill:0,0,0;stroke:None;stroke-width:1;opacity:1" d="d=M442,258 A213,213,0,1,1,229,45 A213,213,0,0,1,442,258 M358,184 A9,9,0,0,0,350,175 L209,175 L197,152 A15,15,0,0,0,185,145 L109,145 A9,9,0,0,0,100,153 L100,354 A9,9,0,0,0,109,362 L350,362 A9,9,0,0,0,358,354 L358,184 M276,241 L244,273 L276,305 A11,11,0,1,1,261,320 L229,288 L197,320 A11,11,0,1,1,182,305 L214,273 L182,241 A11,11,0,0,1,197,226 L229,258 L261,226 A11,11,0,0,1,276,241 L276,241Z" />
</svg>