<?xml version="1.0" encoding="utf-8"?>
<svg viewBox="0 0 512 512" version="1.1" xmlns="http://www.w3.org/2000/svg">
<path style="fill:0,0,0;stroke:None;stroke-width:1;opacity:1" d="d=M47,23 L465,23 L465,47 L489,47 L489,372 L465,372 L465,396 L349,396 L349,419 L326,419 L326,442 L303,442 L303,465 L279,465 L279,489 L233,489 L233,465 L209,465 L209,442 L186,442 L186,419 L163,419 L163,396 L47,396 L47,372 L23,372 L23,47 L47,47 L47,23 M70,70 L70,349 L186,349 L186,372 L209,372 L209,396 L233,396 L233,419 L279,419 L279,396 L303,396 L303,372 L326,372 L326,349 L442,349 L442,70 L70,70Z" />
</svg>