<?xml version="1.0" encoding="utf-8"?>
<svg viewBox="0 0 512 512" version="1.1" xmlns="http://www.w3.org/2000/svg">
<path style="fill:0,0,0;stroke:None;stroke-width:0.26;opacity:1" d="d=M99,278 C99,286,100,294,103,301 C110,313,127,326,140,326 C151,326,161,318,186,300 C212,284,263,245,309,245 C355,245,382,273,382,313 C382,391,294,422,196,428 L197,438 C253,441,310,434,346,416 C385,397,414,366,414,318 C414,271,377,228,309,228 C252,228,196,261,158,279 C141,288,135,289,128,289 C120,289,111,283,104,275 L99,278Z" />
</svg>