<?xml version="1.0" encoding="utf-8"?>
<svg viewBox="0 0 512 512" version="1.1" xmlns="http://www.w3.org/2000/svg">
<path style="fill:68,68,68;stroke:None;stroke-width:1;opacity:1" d="d=M448,64 L0,64 L0,384 L448,384 L448,64 M183,256 L224,274 L265,256 L416,352 L32,352 L183,256 M32,315 L32,187 L148,239 L32,315 M300,239 L416,185 L416,313 L300,239 M416,96 L416,150 L224,238 L32,150 L32,96 L416,96 Z" />
<path style="fill:68,68,68;stroke:None;stroke-width:1;opacity:1" d="d=M480,128 L480,416 L64,416 L64,448 L512,448 L512,128 L480,128Z" />
</svg>