<?xml version="1.0" encoding="utf-8"?>
<svg viewBox="0 0 512 512" version="1.1" xmlns="http://www.w3.org/2000/svg">
<path style="fill:0,0,0;stroke:None;stroke-width:1;opacity:1" d="d=M250,459 C189,395,178,363,188,273 C196,206,194,196,175,174 C156,153,155,150,171,150 C193,150,194,125,173,108 C155,93,132,27,137,10 C142,-4,225,121,236,158 C240,171,273,208,309,241 C357,284,369,300,354,300 C342,300,314,288,292,272 C266,254,247,248,241,255 C234,261,254,287,297,325 C334,359,361,388,358,392 C354,395,325,381,292,360 C224,316,221,315,221,340 C221,364,253,417,289,453 C305,469,317,486,317,492 C317,515,291,502,250,459 L250,459Z" />
</svg>