<?xml version="1.0" encoding="utf-8"?>
<svg viewBox="0 0 512 512" version="1.1" xmlns="http://www.w3.org/2000/svg">
<path style="fill:31,26,23;stroke:None;stroke-width:1;opacity:1" d="d=M255,0 C180,0,106,34,57,95 L136,216 C156,160,213,123,272,129 L484,141 C463,98,429,60,384,34 C343,11,299,-0,255,0 L255,0 M42,116 C15,156,-0,204,-0,256 C-0,384,94,490,216,509 L282,380 C223,391,163,360,138,305 L42,116 M495,164 L350,172 C390,217,393,285,357,334 L242,512 C290,514,339,504,384,478 C495,414,540,280,495,164 L495,164 M256,170 C208,170,170,208,170,256 C170,304,208,342,256,342 C304,342,342,304,342,256 C342,208,304,170,256,170 L256,170Z" />
</svg>