<?xml version="1.0" encoding="utf-8"?>
<svg viewBox="0 0 512 512" version="1.1" xmlns="http://www.w3.org/2000/svg">
<path style="fill:none;stroke:128,160,128;stroke-width:50;opacity:1" d="d=M128,0 L128,71 A179,179,0,0,1,102,164 A179,179,0,0,0,102,348 A179,179,0,0,1,127,421 L55,473 M384,0 L384,71 A179,179,0,0,0,410,164 A179,179,0,0,1,410,348 A179,179,0,0,0,385,421 L457,473 Z" />
<path style="fill:0,0,0;stroke:64,224,208;stroke-width:100;opacity:1" d="d=M256,0 L256,512 Z" />
<path style="fill:255,255,255;stroke:64,224,208;stroke-width:60;opacity:1" d="d=M133,256 A123,123,0,1,0,379,256 A123,123,0,1,0,133,256Z" />
</svg>