<?xml version="1.0" encoding="utf-8"?>
<svg viewBox="0 0 512 512" version="1.1" xmlns="http://www.w3.org/2000/svg">
<path style="fill:0,0,0;stroke:None;stroke-width:1;opacity:1" d="d=M511,160 C504,78,445,18,373,18 C324,18,280,44,255,86 C230,44,187,18,139,18 C67,18,8,78,1,160 C0,164,-2,183,5,214 C16,259,40,300,76,332 L254,494 L436,332 C472,300,496,259,507,214 C514,183,512,164,511,160 M158,98 C114,98,79,133,79,176 C79,182,74,186,69,186 C63,186,59,182,59,176 C59,122,103,78,158,78 C163,78,167,82,167,88 C167,93,163,98,158,98Z" />
</svg>