<?xml version="1.0" encoding="utf-8"?>
<svg viewBox="0 0 512 512" version="1.1" xmlns="http://www.w3.org/2000/svg">
<path style="fill:0,0,0;stroke:None;stroke-width:1;opacity:1" d="d=M439,268 L439,324 L356,324 L356,213 L327,213 L327,378 L244,378 L244,159 L215,159 L215,324 L132,324 L132,213 L103,213 L103,268 L34,268 C41,386,139,478,258,478 C376,478,474,386,481,268 L439,268 Z" />
<path style="fill:0,0,0;stroke:None;stroke-width:1;opacity:1" d="d=M76,241 L76,186 L159,185 L159,297 L188,297 L188,132 L271,132 L271,351 L300,351 L300,185 L383,185 L383,297 L412,297 L411,241 L481,241 C474,124,376,31,258,31 C139,31,41,124,34,241 L76,241Z" />
</svg>