<?xml version="1.0" encoding="utf-8"?>
<svg viewBox="0 0 512 512" version="1.1" xmlns="http://www.w3.org/2000/svg">
<path style="fill:0,255,255;stroke:None;stroke-width:1;opacity:1" d="d=M329,379 A73,109,0,0,1,256,488 A73,109,0,0,1,183,379 A73,109,0,0,1,256,270 A73,109,0,0,1,329,379 Z" />
<path style="fill:0,0,0;stroke:0,255,255;stroke-width:10;opacity:1" d="d=M331,193 L297,234 C272,259,238,257,214,232 C190,207,177,159,184,116 C188,90,208,58,213,50 L226,32 Z" />
<path style="fill:0,0,0;stroke:0,255,255;stroke-width:10;opacity:1" d="d=M193,207 L265,116 L262,173 L327,91 Z" />
<path style="fill:none;stroke:0,255,255;stroke-width:10;opacity:1" d="d=M4,6 L508,6 L508,506 L4,506 L4,6Z" />
</svg>