<?xml version="1.0" encoding="utf-8"?>
<svg viewBox="0 0 512 512" version="1.1" xmlns="http://www.w3.org/2000/svg">
<path style="fill:0,0,0;stroke:None;stroke-width:1;opacity:1" d="d=M177,217 C177,184,195,158,217,158 C238,158,256,184,256,217 C256,249,238,276,217,276 C195,276,177,249,177,217 L177,217 M256,0 C115,0,0,115,0,256 C0,397,115,512,256,512 C397,512,512,397,512,256 C512,188,485,123,437,75 C389,27,324,0,256,0 L256,0 M295,217 C295,184,313,158,335,158 C357,158,374,184,374,217 C374,249,357,276,335,276 C313,276,295,249,295,217Z" />
</svg>