<?xml version="1.0" encoding="utf-8"?>
<svg viewBox="0 0 512 512" version="1.1" xmlns="http://www.w3.org/2000/svg">
<path style="fill:255,255,255;stroke:81,91,131;stroke-width:1.09;opacity:1" d="d=M128,17 L380,17 C441,17,491,67,491,128 L491,380 C491,441,441,491,380,491 L128,491 C67,491,17,441,17,380 L17,128 C17,67,67,17,128,17 L128,17 Z" />
<path style="fill:255,255,255;stroke:210,227,247;stroke-width:1.03;opacity:1" d="d=M134,30 L374,30 C431,30,478,77,478,134 L478,374 C478,431,431,478,374,478 L134,478 C77,478,30,431,30,374 L30,134 C30,77,77,30,134,30 L134,30Z" />
</svg>