<?xml version="1.0" encoding="utf-8"?>
<svg viewBox="0 0 512 512" version="1.1" xmlns="http://www.w3.org/2000/svg">
<path style="fill:0,0,0;stroke:None;stroke-width:1;opacity:1" d="d=M384,64 L128,64 C83,64,48,99,48,144 L48,448 C48,454,51,459,58,462 C59,464,62,464,64,464 C67,464,72,462,75,461 C144,400,232,368,323,368 L384,368 C429,368,464,333,464,288 L464,144 C464,99,429,64,384,64 M224,272 L176,272 C166,272,160,266,160,256 C160,246,166,240,176,240 L224,240 C234,240,240,246,240,256 C240,266,234,272,224,272 M272,208 L176,208 C166,208,160,202,160,192 C160,182,166,176,176,176 L272,176 C282,176,288,182,288,192 C288,202,282,208,272,208Z" />
</svg>