<?xml version="1.0" encoding="utf-8"?>
<svg viewBox="0 0 512 512" version="1.1" xmlns="http://www.w3.org/2000/svg">
<path style="fill:0,0,0;stroke:None;stroke-width:1;opacity:1" d="d=M448,140 L448,398 A71,71,0,0,1,377,469 L247,469 C228,469,210,462,196,448 L57,306 C57,306,79,284,80,284 A21,21,0,0,1,105,282 C105,282,181,326,181,326 L181,114 A27,27,0,0,1,208,87 A27,27,0,0,1,235,114 L235,238 L252,238 L252,69 A27,27,0,0,1,279,43 C294,43,306,55,306,69 L306,238 L324,238 L324,87 C324,72,335,60,350,60 A27,27,0,0,1,377,87 L377,238 L395,238 L395,140 A27,27,0,0,1,421,114 A27,27,0,0,1,448,140Z" />
</svg>