<?xml version="1.0" encoding="utf-8"?>
<svg viewBox="0 0 512 512" version="1.1" xmlns="http://www.w3.org/2000/svg">
<path style="fill:17,25,24;stroke:None;stroke-width:1;opacity:1" d="d=M249,48 L41,256 L256,471 L464,263 L464,48 L249,48 M432,249 L256,425 L87,256 L263,80 L432,80 L432,249 M368,192 C394,192,416,170,416,144 C416,118,394,96,368,96 C342,96,320,118,320,144 C320,170,342,192,368,192 M368,128 C377,128,384,135,384,144 C384,153,377,160,368,160 C359,160,352,153,352,144 C352,135,359,128,368,128 M261,197 L283,219 L187,315 L165,293 L261,197 M197,325 L293,229 L315,251 L219,347 L197,325Z" />
</svg>