<?xml version="1.0" encoding="utf-8"?>
<svg viewBox="0 0 512 512" version="1.1" xmlns="http://www.w3.org/2000/svg">
<path style="fill:0,0,0;stroke:None;stroke-width:1;opacity:1" d="d=M512,48 L512,336 C512,362,490,384,464,384 L416,384 L416,176 C416,132,380,96,336,96 L128,96 L128,48 C128,22,150,0,176,0 L464,0 C490,0,512,22,512,48 M384,176 L384,464 C384,490,362,512,336,512 L48,512 C22,512,0,490,0,464 L0,176 C0,150,22,128,48,128 L336,128 C362,128,384,150,384,176 M316,204 C316,197,311,192,304,192 L76,192 C69,192,64,197,64,204 L64,256 L316,256 L316,204Z" />
</svg>