<?xml version="1.0" encoding="utf-8"?>
<svg viewBox="0 0 512 512" version="1.1" xmlns="http://www.w3.org/2000/svg">
<path style="fill:0,0,0;stroke:None;stroke-width:1;opacity:1" d="d=M144,80 L144,96 L80,96 L80,448 L432,448 L432,96 L368,96 L368,80 L336,80 L336,96 L176,96 L176,80 L144,80 M112,128 L144,128 L144,144 L176,144 L176,128 L336,128 L336,144 L368,144 L368,128 L400,128 L400,160 L112,160 L112,128 M112,192 L400,192 L400,416 L112,416 L112,192 M176,288 L176,320 L336,320 L336,288 L176,288Z" />
</svg>