<?xml version="1.0" encoding="utf-8"?>
<svg viewBox="0 0 512 512" version="1.1" xmlns="http://www.w3.org/2000/svg">
<path style="fill:0,136,206;stroke:None;stroke-width:1;opacity:1" d="d=M256,1 C116,1,1,116,1,256 C1,396,116,511,256,511 C396,511,511,397,511,256 C511,115,397,1,256,1 M358,323 C367,332,367,349,358,358 C349,367,332,367,323,358 L256,291 L189,358 C180,367,163,367,154,358 C145,349,145,332,154,323 L221,256 L154,189 C145,180,145,163,154,154 C163,145,180,145,189,154 L256,221 L323,154 C332,145,349,145,358,154 C367,163,367,180,358,189 L291,256 L358,323Z" />
</svg>