<?xml version="1.0" encoding="utf-8"?>
<svg viewBox="0 0 512 512" version="1.1" xmlns="http://www.w3.org/2000/svg">
<path style="fill:0,0,0;stroke:None;stroke-width:1;opacity:1" d="d=M189,57 L189,360 C173,345,152,336,128,336 C79,336,40,375,40,424 C40,473,80,512,128,512 C177,512,217,473,217,424 C217,424,216,424,216,424 L216,415 L216,170 L445,119 L445,298 C429,283,408,274,384,274 C335,274,296,314,296,362 C296,411,336,451,384,451 C433,451,472,411,472,363 L472,356 L472,113 L472,0 L189,57Z" />
</svg>