<?xml version="1.0" encoding="utf-8"?>
<svg viewBox="0 0 512 512" version="1.1" xmlns="http://www.w3.org/2000/svg">
<path style="fill:0,0,0;stroke:None;stroke-width:1;opacity:1" d="d=M396,32 L116,32 A84,84,0,0,0,32,116 L32,396 A84,84,0,0,0,116,480 L396,480 A84,84,0,0,0,480,396 L480,116 A84,84,0,0,0,396,32 M435,396 A40,40,0,0,1,396,435 L116,435 A40,40,0,0,1,77,396 L77,116 A40,40,0,0,1,116,77 L396,77 A40,40,0,0,1,435,116 L435,396 M278,128 L234,128 L234,234 L128,234 L128,279 L234,279 L234,384 L278,384 L278,279 L384,279 L384,234 L278,234 L278,128Z" />
</svg>