<?xml version="1.0" encoding="utf-8"?>
<svg viewBox="0 0 512 512" version="1.1" xmlns="http://www.w3.org/2000/svg">
<path style="fill:44,169,188;stroke:None;stroke-width:1;opacity:1" d="d=M237,305 L177,244 A21,21,0,0,0,147,244 L49,342 A21,21,0,0,0,43,358 A21,21,0,0,0,49,372 L109,433 A21,21,0,0,0,124,439 A21,21,0,0,0,140,433 L237,335 A21,21,0,0,0,237,305 Z" />
<path style="fill:0,0,0;stroke:None;stroke-width:1;opacity:1" d="d=M457,176 L366,85 A43,43,0,0,0,306,85 L147,244 A21,21,0,0,0,141,260 A21,21,0,0,0,147,275 L253,380 A43,43,0,0,0,284,393 A43,43,0,0,0,314,380 L458,236 A43,43,0,0,0,458,176 L457,176Z" />
</svg>