<?xml version="1.0" encoding="utf-8"?>
<svg viewBox="0 0 512 512" version="1.1" xmlns="http://www.w3.org/2000/svg">
<path style="fill:0,0,0;stroke:None;stroke-width:1;opacity:1" d="d=M307,205 C307,177,330,154,358,154 C387,154,410,177,410,205 C410,233,387,256,358,256 C330,256,307,233,307,205 M102,205 C102,177,125,154,154,154 C182,154,205,177,205,205 C205,233,182,256,154,256 C125,256,102,233,102,205 M256,461 C143,461,51,369,51,256 C51,143,143,51,256,51 C369,51,461,143,461,256 C461,369,369,461,256,461 M256,0 C115,0,0,115,0,256 C0,397,115,512,256,512 C397,512,512,397,512,256 C512,115,397,0,256,0Z" />
</svg>