<?xml version="1.0" encoding="utf-8"?>
<svg viewBox="0 0 512 512" version="1.1" xmlns="http://www.w3.org/2000/svg">
<path style="fill:0,22,103;stroke:None;stroke-width:1;opacity:0.01" d="d=M0,0 L512,0 L512,512 L0,512 L0,0 Z" />
<path style="fill:255,255,255;stroke:None;stroke-width:1;opacity:1" d="d=M339,431 L339,451 L391,451 L391,472 L167,472 L167,451 L224,451 L224,431 L339,431 M369,272 C417,324,376,389,335,378 C292,367,288,416,288,416 C244,335,298,300,332,303 C367,306,369,272,369,272 L369,272 M242,40 C391,76,393,244,305,275 C214,307,264,400,264,400 C90,308,147,179,212,142 C278,104,242,40,242,40Z" />
</svg>