<?xml version="1.0" encoding="utf-8"?>
<svg viewBox="0 0 512 512" version="1.1" xmlns="http://www.w3.org/2000/svg">
<path style="fill:0,0,0;stroke:None;stroke-width:1;opacity:1" d="d=M352,288 A32,32,0,0,1,416,288 L416,384 A96,96,0,0,1,320,480 L128,480 A96,96,0,0,1,32,384 L32,192 A96,96,0,0,1,128,96 L224,96 A32,32,0,1,1,224,160 L128,160 A32,32,0,0,0,96,192 L96,384 A32,32,0,0,0,128,416 L320,416 A32,32,0,0,0,352,384 L352,288 M396,160 L244,311 A31,31,0,0,1,201,268 L352,116 L310,74 A15,15,0,0,1,319,48 L463,32 A15,15,0,0,1,480,49 L464,193 A15,15,0,0,1,438,202 L396,160Z" />
</svg>