<?xml version="1.0" encoding="utf-8"?>
<svg viewBox="0 0 512 512" version="1.1" xmlns="http://www.w3.org/2000/svg">
<path style="fill:255,255,255;stroke:None;stroke-width:1;opacity:1" d="d=M16,256 A240,240,0,1,0,496,256 A240,240,0,1,0,16,256 Z" />
<path style="fill:255,179,0;stroke:None;stroke-width:1;opacity:1" d="d=M256,16 C123,16,16,123,16,256 C16,389,123,496,256,496 C389,496,496,389,496,256 C496,123,389,16,256,16 M300,372 L256,293 L209,372 L153,372 L228,254 L157,140 L215,140 L256,216 L299,140 L355,140 L284,252 L359,372 L300,372Z" />
</svg>